<?xml version="1.0" encoding="utf-8"?>
<!-- Generator: Adobe Illustrator 21.1.0, SVG Export Plug-In . SVG Version: 6.00 Build 0)  -->
<svg version="1.1" id="Layer_1" xmlns="http://www.w3.org/2000/svg" xmlns:xlink="http://www.w3.org/1999/xlink" x="0px" y="0px"
	 viewBox="0 0 300 300" style="enable-background:new 0 0 300 300;" xml:space="preserve">
<style type="text/css">
	.st0{fill:#FFFFFF;}
	.st1{fill:#4D4D4D;}
	.st2{fill:#FFFFFF;stroke:#4D4D4D;stroke-width:0.5;stroke-miterlimit:10;}
	.st3{fill:#4D4D4D;stroke:#4D4D4D;stroke-width:0.75;stroke-miterlimit:10;}
	.st4{fill:#FFFFFF;stroke:#4D4D4D;stroke-miterlimit:10;}
	.st5{fill:#4D4D4D;stroke:#4D4D4D;stroke-width:0.5;stroke-miterlimit:10;}
	.st6{fill:none;}
</style>
<g>
	<g>
		<path d="M300,164.2c-0.4-9.2,0-30.9,0-30.9h-16.9l0,0c-0.8-6.5-2.1-12.8-3.8-19l13.7-7.1c-4.5-17-9.8-27.1-9.8-27.1L266.1,83
			c-3.2-5.5-6.8-10.7-10.7-15.7l11.1-13.1c-4.2-5.6-22.5-22.4-22.5-22.4l-12,12.3c-4.8-3.7-9.9-7.1-15.1-10.1l3.6-15.5
			c-7-3.4-26-13.2-26-13.2l-9.8,15.2H184c-5.9-1.5-12-2.6-18.2-3.3L166,0.5c-17.8-1.2-31.3,0-31.3,0l-1.2,16.8l0,0
			c-5.8,0.7-11.5,1.9-17.1,3.3L106.2,5.9c-16.3,4.4-27.1,10.4-27.1,10.4l4.4,18l0,0c-5.1,3-10,6.3-14.7,9.9L54.4,33.6
			c-12,10-20.5,19.3-20.5,19.3L45,68l0,0c-3.7,4.8-7.1,9.8-10.2,15.1L17.5,77C8,97.9,5.7,105.4,5.7,105.4l16.1,8.5l0,0
			c-1.7,6.1-3,12.3-3.8,18.7l-17.3,1.9C0.1,143.7,0,163.6,0,163.6l16.7,1.9l0.9,0.9c0.7,6.1,1.8,12.1,3.3,17.9l-13.7,8.5
			c2.6,12,9.4,27.8,9.4,27.8l16.1-5.4l0.7,0.4c3.3,6,7,11.6,11.2,17L32.9,245c6.2,6.6,22.8,21.9,22.8,21.9l11-11.8
			c5.3,4.3,10.9,8.1,16.7,11.5L78.2,282c6.4,2.7,28.5,12.2,28.5,12.2l7.5-14.5c6.5,1.8,13.3,3.2,20.2,4l0.4,16
			c8.3,0.5,30.6,0,30.6,0v-15.8l0,0c7-0.8,13.7-2.1,20.3-3.9l9.6,12.8c12.4-3.9,25.7-11.4,25.7-11.4l-5.6-13.6
			c6.4-3.5,12.4-7.6,18.1-12.1l12.7,10.4c6.5-6.3,21.7-20.8,21.7-20.8l-11.5-12.8l0,0c4.1-5.3,7.8-10.9,11.1-16.8l15.2,5.8
			c4-7.5,11.1-27.6,11.1-27.6l-13.9-8.9l0,0c1.6-6.2,2.9-12.6,3.6-19.2L300,164.2z"/>
		<ellipse class="st0" cx="150" cy="150" rx="116.6" ry="117"/>
		<g>
			<ellipse class="st1" cx="150" cy="150" rx="69.2" ry="69.5"/>
			<path class="st2" d="M88.2,136.8c2.9-1.5,9.9-5,12.6-6.3c0.5-0.2,1,0.1,1.1,0.6l0.1,4.1c0,0.5,0.6,0.9,1,0.7l9.3-4.3
				c0.2-0.1,0.4-0.3,0.4-0.6l0.7-9.5c0-0.3,0.2-0.5,0.5-0.6l9.9-3.4c0.5-0.2,1,0.2,1,0.7v1c0,0.3-0.2,0.6-0.5,0.7l-7.8,3.2
				c-0.3,0.1-0.5,0.4-0.5,0.7l0.1,5.2c0,0.5,0.5,0.8,1,0.7l3.7-1.3c0.5-0.2,1,0.2,1,0.7l0.5,15.1c0,0.6,0.7,0.9,1.2,0.5l16.3-13.3
				c0.4-0.3,1-0.1,1.2,0.4l3.2,11.7c0,0.1,0.1,0.2,0.1,0.2l1.2,1.7c0.3,0.4,0.8,0.4,1.1,0.1l12.2-10.9c0.1-0.1,0.3-0.2,0.5-0.2h9.3
				h0.1l6.3-1.3c0.3-0.1,0.6-0.4,0.6-0.7l0.4-9.8c0-0.1,0-0.2,0.1-0.3c0.4-0.8,2.6-4.9,6-2.2c3.7,3,2.5-1.9,4.6-1.2
				c2.2,0.6,3.9,3-2.6,3.9s-5.4,0.5-5.4,0.5l0.8,6.5c0.1,0.4,0.4,0.7,0.8,0.6l5.1-0.4c0.4,0,0.8,0.3,0.8,0.7l0.2,3.6
				c0,0.5,0.5,0.8,0.9,0.7l18.4-5.1c0.4-0.1,0.9,0.2,0.9,0.7l0.3,4.7c0,0.4,0.4,0.7,0.8,0.7l2.6-0.4c0.4-0.1,0.7-0.4,0.6-0.8
				l-0.3-3.1c0-0.5,0.4-0.9,0.9-0.8l0,0c0.5,0.1,0.9-0.3,0.9-0.8c0.1-3.7-4.4-5-5.1-8.7c-2.4-12.6-15.4-5-15.5-5
				c-0.9,0.1-7.7,0.4-8.9-3.2c-1.4-3.8-11.8-11.3-24.8-0.5c-0.3,0.2-0.6,0.2-0.9,0c-1.4-1.1-6.9-3.2-10.6-4.5
				c-2-0.7-4.1-0.5-5.9,0.6c-3.6,2.2-9.8,5.6-12.4,4.1c-3.7-2.2-8.7,0-12.9,5.4c-0.1,0.1-0.2,0.2-0.4,0.3c-0.8,0.2-3.6,0.7-8-1
				c-5.2-2-16.1-2.8-19.9,18.9C87.1,136.6,87.7,137,88.2,136.8z"/>
			<path class="st2" d="M169.1,137.7l12.9-4c0.6-0.2,1.2,0.3,1.2,0.9l-0.2,12.8c0,1.2-1,2.1-2.1,2.2l-2.4,0.1c0,0-0.9-4.5-6-6.1
				C167.2,142.1,169.1,137.7,169.1,137.7z"/>
			<ellipse class="st1" cx="136.9" cy="134.7" rx="9.4" ry="9.4"/>
			<path class="st2" d="M186.2,138.7l17.1-5.2c0.6-0.2,1.2,0.3,1.2,0.9l-0.1,13.3c0,1.4-1.2,2.5-2.6,2.5l-13.2-0.3
				c-1.4,0-2.6-1.2-2.6-2.6l-0.4-7.6C185.5,139.3,185.8,138.9,186.2,138.7z"/>
			<path class="st2" d="M206.2,138.5l7.1-2c0.6-0.2,1.1,0.2,1.2,0.8l0.9,10.6c0.1,1.3-0.9,2.4-2.2,2.4l-4.3-0.1
				c-1.2,0-2.3-1-2.3-2.3L206.2,138.5z"/>
			<path class="st2" d="M179.5,152.8h34.7c0.5,0,0.9,0.4,0.9,0.9c-0.1,3.7-0.6,16.8-3.3,20.8c-0.2,0.2-0.4,0.4-0.7,0.4l-32.6,1.8
				c-0.5,0-1-0.4-1-1l1-22C178.6,153.2,179.1,152.8,179.5,152.8z"/>
			<path class="st3" d="M184.3,157.1l25.5-0.1c0.6,0,1,0.5,0.9,1l-1.1,10.8c0,0.5-0.4,0.8-0.9,0.8l-25,0.9c-0.5,0-1-0.4-1-1
				l0.5-11.5C183.4,157.5,183.8,157.1,184.3,157.1z"/>
			<path class="st0" d="M194.6,163.2h-8.9c-0.3,0-0.5-0.2-0.5-0.5v-2.9c0-0.3,0.2-0.5,0.5-0.5h8.9c0.3,0,0.5,0.2,0.5,0.5v2.9
				C195.1,163,194.9,163.2,194.6,163.2z"/>
			<path class="st0" d="M207.9,162.9h-9.7c-0.3,0-0.5-0.2-0.5-0.5v-2.7c0-0.3,0.2-0.5,0.5-0.5h9.7c0.3,0,0.5,0.2,0.5,0.5v2.7
				C208.4,162.7,208.2,162.9,207.9,162.9z"/>
			<path class="st0" d="M206.9,167.7h-8.2c-0.4,0-0.7-0.3-0.7-0.7v-0.1c0-0.8,0.7-1.5,1.5-1.5h7.5c0.5,0,1,0.4,1,1v0.3
				C207.9,167.2,207.5,167.7,206.9,167.7z"/>
			<path class="st0" d="M194,167.9h-8.3c-0.7,0-1.2-0.5-1.2-1.2l0,0c0-1.2,1-1.3,2.2-1.3h7.1c0.7,0,1.4,0.6,1.4,1.4v-0.1
				C195.2,167.3,194.7,167.9,194,167.9z"/>
			<path class="st2" d="M176.9,185.6l27.8-0.9c0.7,0,1.2,0.7,0.9,1.3c-1.5,3.4-7.4,11.9-18.8,19.2c-3,1.9-5.4,2.5-9.4,5.9
				c-0.4,0.4-1.1-0.1-1.2-0.6c-0.8-3.1-2.9-12.3-0.6-16.6c0.1-0.1,0.1-0.2,0.1-0.4l0.4-7C176,186,176.4,185.6,176.9,185.6z"/>
			<path class="st2" d="M157.8,186l-5.4,10.2c-0.1,0.1-0.1,0.3-0.1,0.5l0.4,20.5c0,0.5,0.4,0.9,0.9,0.9c2.4,0.1,9,0,9.7-3.8
				c0.7-4.3,0.6-17.3,0.6-19.1c0-0.1,0-0.3-0.1-0.4l-4.4-8.8C159.1,185.3,158.2,185.3,157.8,186z"/>
			<path class="st2" d="M116.2,207.1c-0.6-0.5-0.4-1.5,0.3-1.7c2.7-0.7,8.2-1.8,12.1-1c3.9,0.8,8.6-0.5,10.9-1.2
				c0.6-0.2,1.3,0.3,1.2,1l-1,11.8c-0.1,0.6-0.7,1-1.2,0.8C134.4,215.3,120.5,210.3,116.2,207.1z"/>
			<path class="st2" d="M171.9,162.6c0.7,0,1.5,0.1,2.1,0.1c1.1,0.1,2,1,1.9,2.1l-0.5,20.7c0,0.5-0.4,0.9-0.9,0.9h-2.3
				c-0.4,0-0.8-0.3-0.9-0.8c-0.5-2.9-2.4-13.5-2.2-20.5C169.2,163.6,170.5,162.5,171.9,162.6z"/>
			<path class="st2" d="M170.7,156.9l5.2,0.1c0.5,0,0.9-0.4,0.9-0.9c0-2.3-0.5-8.2-4.4-9.5c-0.2-0.1-0.4-0.1-0.7,0
				c-0.8,0.4-2.3,2-2,9.4C169.8,156.5,170.2,156.9,170.7,156.9z"/>
			<path class="st2" d="M157.7,140.3l3.2,1.6c0.2,0.1,0.4,0.1,0.6,0.1l4.8-1.3c0.5-0.1,1,0.2,1.1,0.7c0.5,1.9,1.1,6.2-2,8.1
				c-3.5,2.1-8.2,0.3-9.6-0.3c-0.2-0.1-0.4-0.3-0.5-0.6c-0.5-1.6-2.1-7.4,1.7-8.3C157.3,140.2,157.5,140.3,157.7,140.3z"/>
			<path class="st2" d="M151.4,145.3l2,9c0,0.2,0,0.4-0.1,0.6l-1.5,2.9c-0.2,0.4-0.6,0.6-1.1,0.5l-5.2-1.4c-0.5-0.1-0.8-0.6-0.7-1
				c0.3-2.3,1.4-8.8,5.2-11.2C150.6,144.4,151.3,144.7,151.4,145.3z"/>
			<path class="st2" d="M144.4,162.8h4.9c0.2,0,0.3,0.2,0.3,0.4l-4.7,11.6c-0.1,0.3-0.5,0.2-0.5-0.1l-0.2-11.6
				C144.1,163,144.2,162.8,144.4,162.8z"/>
			<path class="st0" d="M142.5,159.8l-2.4,16.5c0,0.2-0.4,0.3-0.5,0.1L135,170c-0.1-0.1-0.1-0.2,0-0.3l7-10.1
				C142.2,159.4,142.6,159.5,142.5,159.8z"/>
			<path class="st2" d="M142.3,145.9l0.8,1.2c0.3,0.5,0.4,0.9,0.2,1.3l-4,13.5c0,0.2-0.1,0.3-0.2,0.4l-0.2,0.2
				c-0.5,0.6-1.4,0.7-2,0.1l-2-2c-0.4-0.4-0.5-1.1-0.2-1.6l3.7-6.2c0.1-0.2-0.1-0.5-0.3-0.3l-4.7,3.7c-0.5,0.4-1.2,0.4-1.7-0.1
				l-0.8-0.8c-0.5-0.5-0.6-1.2-0.2-1.8c1.7-2.3,6.2-7.7,10.5-8.4C141.5,145.2,142,145.5,142.3,145.9z"/>
			<path class="st2" d="M130.9,144l1.9,1.7c0.7,0.6,0.6,1.7-0.2,2.2c-2,1.4-5.4,4.1-5.5,7.2c0,0.5-0.4,0.9-0.9,0.9h-0.3
				c-0.3,0-0.7-0.1-0.8-0.4l-2.7-4c-0.3-0.5-0.3-1.1,0-1.5c1.2-1.8,4.3-6.1,7.3-6.4C130.2,143.6,130.6,143.7,130.9,144z"/>
			<path class="st2" d="M102.6,138.7l15.2-5.8c0.6-0.2,1.3,0.2,1.3,0.9l-0.3,15.9c0,0.5-0.4,0.9-0.9,0.9l-15.4-0.3
				c-0.5,0-0.9-0.5-0.9-1l0.5-9.7C102,139.2,102.2,138.8,102.6,138.7z"/>
			<path class="st2" d="M85.7,140.9l12.4-6.9c0.6-0.3,1.4,0.1,1.4,0.8l0.3,14.8c0,0.5-0.4,1-1,1l-13-0.6c-0.5,0-0.9-0.5-0.9-1
				l0.3-7.3C85.2,141.3,85.4,141,85.7,140.9z"/>
			<path class="st2" d="M86.7,152.8l30.3-0.1c1,0,1.9,0.8,1.9,1.9v7.1c0,0-0.7,0.1-1.1,3.1c-0.3,2.6,1.1,3.8,1.1,3.8v1.7
				c0,0.7-0.4,1.4-1.1,1.7c-1.3,0.7-3.6,2.1-4.3,4.4c-0.2,0.8-1,1.3-1.8,1.3c-4.4,0-16.9,0-20.9,0c-0.8,0-1.5-0.5-1.7-1.2l-1.4-3.6
				c-0.5-1.2,0.4-2.5,1.7-2.5l20.4-0.2c1,0,1.8-0.8,1.8-1.9v-10c0-1-0.8-1.9-1.9-1.9h-20c-1,0-1.9,0.8-1.9,1.9v8.2
				c0,0.5-0.4,0.9-0.9,0.9h-0.1c-0.4,0-0.8-0.3-0.9-0.7c-0.5-2.1-1.7-8.4-1.1-12.1C85,153.5,85.8,152.8,86.7,152.8z"/>
			<path class="st0" d="M98.7,162.9h-8.3c-0.3,0-0.5-0.2-0.5-0.5v-2.5c0-0.3,0.2-0.5,0.5-0.5h8.3c0.3,0,0.5,0.2,0.5,0.5v2.5
				C99.2,162.7,99,162.9,98.7,162.9z"/>
			<path class="st0" d="M96.8,167.3h-6c-0.5,0-0.9-0.4-0.9-0.9v-0.7c0-0.5,0.4-0.9,0.9-0.9h6c0.5,0,1.4,0.6,1.4,1.1v0.6
				C98.3,167,97.4,167.3,96.8,167.3z"/>
			<path class="st0" d="M107.7,167.3h-6c-0.5,0-0.9-0.4-0.9-0.9v-0.7c0-0.5,0.4-0.9,0.9-0.9h6.6c0.5,0,0.9,0.6,0.9,1.1v0.6
				C109.1,167,108.2,167.3,107.7,167.3z"/>
			<path class="st0" d="M109.5,162.9h-8.3c-0.3,0-0.5-0.2-0.5-0.5v-2.5c0-0.3,0.2-0.5,0.5-0.5h8.3c0.3,0,0.5,0.2,0.5,0.5v2.5
				C110,162.7,109.8,162.9,109.5,162.9z"/>
			<path class="st2" d="M95.8,187.6c2.8,5.6,9.5,11.4,12,13.4c0.5,0.4,1.2,0.2,1.4-0.3l4-8.8c0.2-0.5,0-1.1-0.5-1.3
				c-1.8-0.6-2.1-2.9-2.1-4.2c0-0.5-0.5-0.9-1-0.9l-13,0.8C96,186.3,95.5,187,95.8,187.6z"/>
			<ellipse class="st1" cx="161.6" cy="131.3" rx="8.5" ry="9.7"/>
			<path class="st2" d="M156.4,128.1c0,0,3.7-1.2,3.5,0.6c-0.2,1.7-2.4,3.8-4.2,1.3c-1.7-2.6-1.4,11.8,8.5,9.7c0,0,3.5-2.3,3.5-8.3
				c0,0-2.9,1.2-4.1-0.7l0.1,6.1l-1.7,1.4l-2.2-2.1l0.5-0.8l0.8-0.3h0.8l0.7-5.9l4.5-0.1C167.1,128.8,163.7,121.7,156.4,128.1z"/>
			<path class="st2" d="M121.4,179.1c-0.1-0.1-0.2-0.3-0.3-0.5c-0.2-1.3-0.9-6.2,2.7-3.3C128,178.5,126,183.8,121.4,179.1z"/>
			<path class="st2" d="M113.4,182c0.5,0.7,1.8,2,3.9,1.2c0.3-0.1,0.6-0.4,0.6-0.8c0.1-0.9,0.3-2.5,1.3-3.3c1.3-1,0.6-7.1-2.3-4
				c-2.3,2.5-3.3,5-3.6,6C113.2,181.5,113.3,181.8,113.4,182z"/>
			<path class="st2" d="M129.6,178.2c-0.3,0.1-0.5,0.3-0.6,0.5c-0.4,0.9-1,3,2.8,2c4.8-1.3,3.3-10,0.5-6.8
				C129.6,177.1,131.2,177.8,129.6,178.2z"/>
			<path class="st2" d="M136.5,179.3c0,0,0.7-3.7,3,0c0,0,1.7,4.7-0.8,5.4c-2.6,0.7-2.2-2.2-2.2-2.2V179.3z"/>
			<path class="st2" d="M135.1,194.1c-0.3,1.3-7.6,1-8.6-1c-1-2.1-10.5-0.8-10.5-0.8s-2.3-3.7,7.3-2.3
				C133,191.3,136,190.3,135.1,194.1z"/>
			<ellipse class="st2" cx="114.2" cy="186.7" rx="1.5" ry="1.3"/>
			<path class="st2" d="M142,192c0,0-1.5-3.6-3.5,0.1C136.5,195.8,142.2,197.1,142,192z"/>
			<ellipse class="st2" cx="138.8" cy="188.8" rx="1.2" ry="1"/>
			<g>
				<path class="st2" d="M122.2,161c0,0,0,1.7,2.4,1.5s3.1,1.2,1.2,2.9s-1.1-2.2-4.3-0.8c-3.2,1.4,0.4,9.3,5.5,8.9
					c5.1-0.4,5.2-3.3,5.2-3.3s2.4-0.5,2.2-2.9s-0.8-3.4-3-1.7s-3.5-2.5-0.8-2.9s3.5-0.9,1.9-3.2C131.2,157.6,123.5,157.5,122.2,161z
					"/>
				<path class="st3" d="M127.3,165.7c0,0,0.3-0.9,0.7,0.1s0.4,4.8-0.6,4.8c-0.9,0-2.5-1.2-1.4-1.7
					C127.2,168.3,127.3,165.7,127.3,165.7z"/>
			</g>
			<g>
				<path class="st4" d="M133.2,131.9c0,0-0.5-3.5,2.6-3c0,0,3.6-2.4,3-0.1c-0.6,2.3-4,1.1-1.9,2.4s1.9-2.6,3.6-1.7
					c1.6,0.9,0.5,3.3-1.5,3c-2-0.4-1.2,0.8-0.4,1.1c0.7,0.3,1.5,0.1,2,0.7c0.2,0.3,0.5,0.4,0.9,0.4c1.3,0,4.4,0.5,2.7,3.7
					c-2.2,4-3.6,6.4-8.8,6.1c-5.2-0.3-6.7-6.2-6.1-8.7c0.6-2.5,0.6-3.3,3.6-2.2S137,131.5,133.2,131.9z"/>
				<path class="st5" d="M136.3,135.3c0,0,1.2-2,1.6,0c0.5,2,0,6.2-0.8,6.2s-2.6-1.7-0.8-2.3C138.1,138.7,136.3,135.3,136.3,135.3z"
					/>
			</g>
		</g>
		<g>
			<path d="M107.9,214.5c-0.2,0.2-0.4,0.6-0.8,1.1c-0.3,0.5-0.6,0.8-0.8,1.1c-0.3,0.5-0.6,0.8-0.8,1.1c-0.2,0.2-0.4,0.4-0.5,0.6
				c-0.1,0.1-0.3,0.2-0.4,0.3s-0.3,0.1-0.4,0c-0.2-0.1-0.3-0.1-0.5-0.2c-0.2-0.1-0.4-0.2-0.6-0.4c-0.5-0.4-1.1-0.8-1.7-1.2
				c-0.7-0.5-1.1-0.8-1.2-0.9c-0.6-0.5-1-0.8-1.1-1.1s0-0.6,0.3-1c0.2-0.3,0.4-0.4,0.6-0.3c0.2,0,0.6,0.2,1,0.6
				c0.1,0.1,0.5,0.3,0.9,0.7c0.5,0.4,0.9,0.7,1.3,1l0.3,0.2c0.2,0.2,0.6-0.1,1-0.7c0.1-0.2,0.4-0.6,0.7-1.1c0,0,0-0.1,0-0.2
				c0-0.1-0.1-0.2-0.1-0.2c-0.6-0.5-1-0.8-1.3-1l-1.1-0.8c-0.2-0.2-0.4-0.3-0.4-0.5s0.1-0.3,0.2-0.5l0.1-0.1
				c0.1-0.1,0.1-0.1,0.1-0.1c0.2-0.3,0.4-0.4,0.7-0.3c0.2,0,0.6,0.2,1,0.5c0.1,0.1,0.3,0.3,0.7,0.5c0.3,0.3,0.6,0.5,0.9,0.7l0.3,0.2
				c0,0,0.1,0,0.2,0s0.2-0.1,0.2-0.1c0.2-0.2,0.4-0.5,0.8-1l0.3-0.4c0.1-0.1,0.1-0.2,0.1-0.3s-0.1-0.2-0.2-0.2l-0.1-0.1
				c-0.3-0.2-0.7-0.5-1.2-0.9c-0.5-0.3-0.8-0.5-0.9-0.6c-0.6-0.4-0.9-0.8-1-1s0-0.5,0.2-0.8s0.4-0.5,0.6-0.6c0.1-0.1,0.3,0,0.4,0.1
				l0.1,0.1l2.6,1.9c0.2,0.2,0.6,0.4,1,0.8c0.5,0.3,0.8,0.6,1,0.8c0.4,0.3,0.5,0.7,0.2,1.1L107.9,214.5z"/>
			<path d="M88.7,204.8L88.7,204.8c-0.2-0.2-0.4-0.4-0.4-0.5c-0.1-0.1-0.1-0.3-0.1-0.4c0-0.1,0-0.2,0.1-0.3c0-0.1,0.1-0.2,0.2-0.3
				c0.2-0.3,1.1-1.5,2.7-3.5c1.7-2,2.7-3.3,3-3.7c0,0,0,0,0.1-0.1c0,0,0-0.1,0.1-0.1c0.3-0.3,0.5-0.4,0.7-0.4s0.4,0.2,0.6,0.4
				l0.2,0.2c0.3,0.3,0.4,0.6,0.4,0.8s-0.2,0.6-0.6,1c-0.2,0.3-0.8,1-1.8,2.1s-1.4,1.7-1.5,1.8v0.1c0,0,0,0.1,0.1,0.1s0.1,0,0.1,0
				c0.2-0.1,1.1-0.4,2.6-1.1c1.5-0.7,2.5-1,2.9-1.2c0.3-0.1,0.5-0.1,0.7-0.1s0.3,0.1,0.5,0.3l0,0c0.1,0.1,0.2,0.2,0.2,0.3
				c0.1,0.1,0.1,0.2,0.1,0.3s0,0.2,0,0.3s0,0.2,0,0.2s0,0.1-0.1,0.2c0,0.1-0.1,0.2-0.1,0.2c-0.1,0.3-0.3,0.8-0.5,1.4
				c-0.2,0.6-0.4,1-0.6,1.4s-0.4,0.9-0.7,1.5c-0.3,0.6-0.4,0.9-0.4,1v0.1h0.1c0.4-0.3,0.8-0.6,1.2-0.8c0.4-0.3,0.7-0.5,0.9-0.7
				c0.3-0.2,0.6-0.5,1-0.8s0.8-0.6,1.1-0.8c0.3-0.3,0.6-0.4,0.8-0.4c0.2,0,0.5,0.1,0.7,0.4l0.1,0.1c0.2,0.3,0.3,0.5,0.4,0.7
				c0,0.2-0.1,0.4-0.3,0.6c-0.1,0.1-0.3,0.2-0.4,0.3c-0.1,0-0.7,0.5-1.9,1.4c-1.2,0.9-2.3,1.8-3.4,2.6s-1.7,1.3-1.9,1.4
				c-0.2,0.1-0.4,0.2-0.5,0.2c-0.2,0-0.3,0-0.4-0.1s-0.3-0.2-0.4-0.3c-0.2-0.2-0.3-0.3-0.3-0.4c0-0.1-0.1-0.2-0.1-0.3s0-0.3,0-0.4
				c0-0.1,0.1-0.3,0.3-0.6c1.2-2.3,2.1-4.4,2.8-6.2v-0.1c0,0-0.1-0.1-0.1,0c-3.2,1.2-5.4,2.1-6.6,2.6h-0.1c-0.1,0-0.1,0-0.1,0.1
				c0,0-0.1,0-0.2,0s-0.1,0-0.2,0s-0.1,0-0.2-0.1c-0.1,0-0.2-0.1-0.3-0.1C88.9,204.9,88.8,204.9,88.7,204.8z"/>
			<path d="M89.4,196.9l-3.7,2.6c-0.6,0.4-1,0.3-1.4-0.3l-2-2.9c-1-1.4-1-2.8-0.2-4c0.3-0.4,0.6-0.8,1.1-1.1
				c0.4-0.2,0.7-0.4,1.1-0.6c0.7-0.3,1.4-0.3,2.1,0s1.3,0.7,1.8,1.4c0,0,0,0.1,0.1,0.1c0,0,0,0.1,0.1,0.1c0.2,0.3,0.3,0.5,0.4,0.6
				c0.1,0.2,0.3,0.4,0.5,0.7c0.1,0.1,0.2,0.2,0.3,0.2c0.1,0,0.2,0,0.4-0.1l1.2-0.8c0.3-0.2,0.5-0.4,0.7-0.5c0.3-0.2,0.5-0.3,0.7-0.2
				c0.2,0,0.4,0.2,0.7,0.6c0.3,0.4,0.4,0.7,0.4,0.8c0,0.2-0.2,0.4-0.5,0.6l-0.1,0.1c-0.2,0.1-0.5,0.3-0.9,0.6
				c-0.3,0.2-0.8,0.5-1.4,1C90.2,196.4,89.8,196.7,89.4,196.9z M87.1,193.8l-0.2-0.4c-0.2-0.2-0.3-0.4-0.5-0.5
				c-0.2-0.2-0.5-0.2-0.8-0.2s-0.6,0.1-0.9,0.3c-0.2,0.2-0.5,0.4-0.7,0.7s-0.3,0.7-0.3,1.1c0.1,0.4,0.2,0.8,0.5,1.1
				c0.4,0.5,0.7,0.8,1.1,0.9c0.1,0,0.2,0,0.4,0c0.2-0.1,0.4-0.2,0.7-0.3c0.5-0.3,0.8-0.7,1-1.2C87.5,194.9,87.5,194.3,87.1,193.8z"
				/>
			<path d="M83.2,187.9c-0.2,0.1-0.6,0.3-1.1,0.5s-0.8,0.4-1.1,0.5c-0.2,0.1-0.6,0.3-1,0.5c-0.5,0.2-0.8,0.4-1,0.5l-0.1,0.1
				c-0.1,0-0.2,0.1-0.2,0.1c-0.1,0-0.2,0-0.3,0c-0.1,0-0.2-0.1-0.3-0.2s-0.2-0.3-0.3-0.5c-0.2-0.5-0.3-0.8-0.2-1
				c0.1-0.2,0.3-0.4,0.8-0.6l2-1c2.1-1.1,3.7-1.9,4.7-2.4c0.1,0,0.1-0.1,0.1-0.2c0-0.1,0-0.2,0-0.3l-1.5-3l0,0
				c-0.2-0.4-0.2-0.6-0.2-0.8c0.1-0.2,0.3-0.4,0.6-0.6c0.3-0.1,0.5-0.2,0.7-0.1c0.2,0.1,0.4,0.3,0.6,0.6l1.3,2.6
				c0.1,0.2,0.3,0.6,0.5,1s0.4,0.8,0.5,1l0,0c0.1,0.3,0.2,0.5,0.1,0.7c0,0.2-0.2,0.3-0.5,0.5c-0.2,0.1-0.5,0.3-0.9,0.5
				s-0.7,0.3-0.9,0.4L83.2,187.9z"/>
			<path d="M82.7,171.9L82.7,171.9c0.2,0.8,0.3,1.5,0.2,2.2c-0.1,0.7-0.3,1.4-0.6,2.1c-0.3,0.6-0.8,1.2-1.4,1.8
				c-0.6,0.5-1.3,0.9-2.1,1.2c-0.7,0.2-1.3,0.2-2,0.1c-0.7-0.1-1.4-0.3-2-0.6s-1.2-0.8-1.7-1.4c-0.5-0.6-0.9-1.2-1.1-2V175
				c-0.4-1.4-0.2-2.8,0.4-4.1c0.7-1.3,1.8-2.3,3.3-2.7h0.1c0.9-0.3,1.8-0.3,2.8-0.1c0.9,0.2,1.8,0.7,2.5,1.3
				C81.9,170,82.4,170.9,82.7,171.9z M78.3,176.9h0.2c0.9-0.3,1.6-0.9,2.1-1.7c0.4-0.8,0.5-1.7,0.3-2.4c0,0,0,0,0-0.1v-0.1
				c-0.3-0.9-0.9-1.6-1.7-2c-0.8-0.4-1.7-0.5-2.5-0.2h-0.1c-0.9,0.3-1.6,0.8-2,1.7c-0.5,0.8-0.6,1.6-0.3,2.5v0.1v0.1
				c0,0.1,0,0.1,0.1,0.2c0.3,0.8,0.8,1.4,1.6,1.8C76.7,177,77.5,177.1,78.3,176.9z"/>
			<path d="M73.9,163.2c-0.3,0.3-0.7,0.6-1,1c-0.4,0.3-0.8,0.7-1.3,1.1c-0.5,0.4-0.9,0.7-1.1,0.9c-0.2,0.1-0.3,0.2-0.4,0.2
				c-0.4,0.1-0.6-0.3-0.7-1.1c0-0.2,0-0.3-0.1-0.4c0-0.1,0-0.2,0-0.3s0-0.2,0-0.2c0-0.1,0-0.1,0.1-0.2c0.1-0.1,0.1-0.1,0.1-0.2
				c0,0,0.1-0.1,0.2-0.2c0.1-0.1,0.2-0.2,0.2-0.2c0.3-0.3,1.3-1.1,2.9-2.6c0,0,0.1-0.1,0-0.2c0-0.1,0-0.1-0.1-0.1
				c0,0-0.6-0.3-1.7-0.7s-1.8-0.8-2.3-1.1c-0.2-0.1-0.4-0.2-0.4-0.3c-0.1-0.1-0.1-0.3-0.1-0.6l-0.1-0.5c-0.1-0.6,0-1,0.4-1
				c0.1,0,0.2,0,0.3,0s0.2,0.1,0.2,0.1h0.1c0,0,0.4,0.2,1.2,0.6c0.8,0.4,1.7,0.8,2.6,1.2s1.6,0.7,1.9,0.9c0.2,0.1,0.3,0.1,0.5,0.1
				c1.6-0.2,2.8-0.4,3.5-0.4c0.4,0,0.6,0,0.7,0.1s0.2,0.3,0.2,0.7v0.2c0.1,0.4,0.1,0.8,0,0.9c-0.1,0.2-0.3,0.3-0.6,0.3
				c-1.1,0.2-2.3,0.4-3.5,0.6c-0.2,0-0.3,0.1-0.4,0.2C74.9,162.2,74.5,162.6,73.9,163.2z"/>
			<path d="M73.3,153.4c-0.3,0-0.7,0-1.3,0c-0.6,0-1,0-1.3,0c-0.6,0-1,0-1.3,0s-0.6,0-0.7-0.1c-0.2,0-0.3-0.1-0.4-0.2
				c-0.1-0.1-0.2-0.2-0.3-0.3c0-0.2-0.1-0.3-0.1-0.5s0-0.4,0-0.8c0-0.6,0-1.3,0-2.1s0-1.3,0-1.5c0-0.8,0.1-1.3,0.3-1.5
				c0.2-0.2,0.5-0.3,1-0.3c0.3,0,0.5,0.1,0.6,0.3s0.1,0.6,0.1,1.1c0,0.2,0,0.6,0,1.2c0,0.6,0,1.2,0,1.7v0.4c0,0.3,0.4,0.4,1.1,0.4
				c0.2,0,0.7,0,1.3-0.1c0.1,0,0.1,0,0.2-0.1s0.1-0.1,0.1-0.2c0-0.8,0-1.3,0-1.7v-1.4c0-0.3,0.1-0.5,0.2-0.6s0.3-0.1,0.6-0.1
				c0,0,0.1,0,0.2,0s0.1,0,0.2,0c0.3,0,0.6,0.1,0.7,0.3s0.2,0.6,0.2,1.1c0,0.1,0,0.4,0,0.9c0,0.4,0,0.8,0,1.1v0.4
				c0,0.1,0,0.1,0.1,0.2c0.1,0.1,0.2,0.1,0.2,0.1c0.2,0,0.7,0,1.2,0h0.5c0.1,0,0.2,0,0.3-0.1c0.1-0.1,0.1-0.2,0.1-0.3v-0.2
				c0-0.4,0-0.9,0-1.5s0-0.9,0-1.1c0-0.7,0.1-1.2,0.2-1.4s0.4-0.3,0.8-0.3s0.7,0,0.8,0.1c0.1,0.1,0.2,0.2,0.2,0.4v0.2v3.2
				c0,0.3,0,0.7,0,1.3s0,1,0,1.3c0,0.5-0.3,0.8-0.8,0.7L73.3,153.4z"/>
			<path d="M73.5,143.5c-0.3,0-0.7-0.1-1.3-0.2c-0.6-0.1-1-0.1-1.3-0.2c-0.6-0.1-1-0.1-1.3-0.2c-0.3,0-0.5-0.1-0.7-0.2
				c-0.2-0.1-0.3-0.1-0.4-0.2c-0.1-0.1-0.2-0.2-0.2-0.4s0-0.3,0-0.5s0-0.4,0.1-0.7c0.1-0.6,0.2-1.3,0.3-2.1s0.2-1.3,0.2-1.5
				c0.1-0.8,0.3-1.2,0.4-1.5c0.2-0.2,0.5-0.3,1.1-0.2c0.3,0,0.5,0.2,0.6,0.4s0.1,0.6,0,1.2c0,0.2-0.1,0.6-0.2,1.2
				c-0.1,0.6-0.2,1.2-0.2,1.6v0.4c0,0.3,0.3,0.5,1.1,0.6c0.2,0,0.7,0.1,1.3,0.1c0,0,0.1,0,0.2-0.1s0.1-0.1,0.1-0.2
				c0.1-0.7,0.2-1.3,0.3-1.7l0.2-1.4c0-0.3,0.1-0.5,0.3-0.6c0.1-0.1,0.3-0.1,0.6-0.1c0,0,0.1,0,0.2,0s0.1,0,0.2,0
				c0.3,0.1,0.5,0.2,0.6,0.4s0.1,0.6,0,1.1c0,0.1-0.1,0.4-0.1,0.9c-0.1,0.4-0.1,0.8-0.2,1.1l-0.1,0.4c0,0.1,0,0.1,0.1,0.2
				c0.1,0.1,0.1,0.1,0.2,0.2c0.2,0,0.6,0.1,1.2,0.2l0.5,0.1c0.1,0,0.2,0,0.3-0.1c0.1-0.1,0.1-0.2,0.1-0.3v-0.1
				c0.1-0.4,0.1-0.9,0.2-1.4c0.1-0.6,0.1-0.9,0.1-1.1c0.1-0.7,0.2-1.2,0.4-1.4c0.1-0.2,0.4-0.3,0.8-0.2s0.7,0.1,0.8,0.2
				c0.1,0.1,0.2,0.2,0.1,0.4v0.2l-0.4,3.2c0,0.3-0.1,0.7-0.2,1.3s-0.1,1-0.2,1.3c-0.1,0.5-0.4,0.7-0.9,0.6L73.5,143.5z"/>
			<path d="M81.9,131.3c-0.3,0.8-0.6,1.5-0.9,2c-0.4,0.5-0.9,0.9-1.5,1.2c0,0-0.1,0-0.1,0.1c-0.1,0-0.1,0.1-0.2,0.1
				s-0.1,0.1-0.2,0.1s-0.2,0.1-0.3,0.1c-0.1,0-0.2,0-0.2,0c-0.1,0-0.2,0-0.2,0c-0.3-0.1-0.5-0.4-0.4-1c0-0.3,0-0.5,0.1-0.6
				c0-0.1,0.1-0.2,0.2-0.3c0.1,0,0.2-0.1,0.5-0.3c0.2-0.1,0.5-0.3,0.8-0.5c0.4-0.4,0.7-0.8,0.9-1.3c0.1-0.5,0.1-0.9-0.1-1.3
				c-0.2-0.4-0.5-0.7-0.8-0.8c-0.1,0-0.2,0-0.4,0c-0.4,0.1-0.8,0.3-1.2,0.8c-0.4,0.5-0.8,1-1.2,1.6c-0.4,0.6-0.7,1-0.9,1.2
				c-0.7,0.7-1.5,0.9-2.4,0.6c-0.2-0.1-0.4-0.2-0.8-0.3c-0.9-0.5-1.4-1.2-1.5-2.4c-0.1-0.5,0-1,0.2-1.6c0.1-0.5,0.3-1,0.6-1.4
				c0.3-0.4,0.6-0.8,1-1.1c0.4-0.3,0.9-0.5,1.4-0.5h0.1c0.2,0.1,0.3,0.3,0.4,0.6c0.1,0.3,0.1,0.6,0,0.7c-0.1,0.3-0.4,0.6-0.9,0.7
				c-0.5,0.2-0.8,0.6-1,1.2s-0.1,1.1,0.2,1.5c0.1,0.2,0.3,0.3,0.5,0.3c0.2,0.1,0.4,0,0.7-0.1c0.2-0.1,0.4-0.3,0.6-0.5
				c0.9-1.2,1.6-2.1,2.1-2.7c0.3-0.4,0.8-0.7,1.2-0.8c0.5-0.1,1-0.1,1.6,0.1c0.3,0.1,0.6,0.2,0.9,0.4c0.6,0.3,1,0.9,1.2,1.7
				C82.1,129.7,82.1,130.5,81.9,131.3L81.9,131.3z"/>
			<path d="M80.3,118.5l-4-2.1c-0.6-0.3-0.7-0.8-0.4-1.3l1.6-3.1c0.8-1.5,2-2.2,3.5-2.1c0.5,0,0.9,0.2,1.4,0.4
				c0.4,0.2,0.7,0.4,1.1,0.7c0.6,0.5,0.9,1.1,1,1.9s0,1.5-0.4,2.2c0,0,0,0.1-0.1,0.1c0,0,0,0.1-0.1,0.1c-0.2,0.3-0.3,0.5-0.4,0.7
				s-0.2,0.4-0.4,0.8c-0.1,0.1-0.1,0.2,0,0.4c0,0.1,0.1,0.2,0.2,0.3l1.3,0.7c0.3,0.2,0.6,0.3,0.7,0.4c0.3,0.2,0.5,0.4,0.5,0.5
				c0.1,0.2,0,0.5-0.2,0.9s-0.4,0.7-0.5,0.7c-0.1,0.1-0.4,0-0.7-0.2l-0.1-0.1c-0.2-0.1-0.5-0.3-0.9-0.5c-0.3-0.2-0.8-0.4-1.5-0.8
				C81.2,118.9,80.7,118.6,80.3,118.5z M82,114.9l0.2-0.4c0.1-0.2,0.2-0.4,0.2-0.6c0-0.3,0-0.6-0.2-0.8c-0.2-0.3-0.4-0.5-0.7-0.6
				c-0.3-0.1-0.6-0.2-0.9-0.3c-0.4-0.1-0.8,0-1.1,0.3c-0.3,0.2-0.6,0.5-0.8,0.9c-0.3,0.6-0.4,1-0.3,1.4c0,0.1,0.1,0.2,0.2,0.4
				s0.4,0.3,0.6,0.4c0.5,0.3,1,0.4,1.5,0.3C81.3,115.8,81.7,115.5,82,114.9z"/>
			<path d="M86.4,109.6c-0.4-0.3-0.8-0.6-1-0.7c-0.2-0.2-0.5-0.4-1-0.7c-0.4-0.3-0.7-0.5-1-0.7c-0.6-0.5-1.3-0.9-1.9-1.4
				c-0.1-0.1-0.2-0.2-0.2-0.5c0-0.2,0-0.4,0-0.5c0.6-0.9,1.1-1.6,1.4-2.1s0.7-0.9,1.1-1.5c0.4-0.5,0.9-0.8,1.5-1.1
				c0.6-0.2,1.3-0.2,2,0c0.4,0.1,0.9,0.3,1.3,0.7c0.6,0.4,1,0.9,1.3,1.5s0.3,1.1,0.1,1.7c-0.1,0.3-0.1,0.5,0,0.6s0.4,0.1,0.9,0.1
				c0.2,0,0.6,0,1.1,0s1,0,1.3,0s0.6,0.1,0.8,0.2c0.3,0.2,0.3,0.6-0.1,1.2l-0.3,0.4c-0.2,0.3-0.4,0.5-0.6,0.6s-0.4,0.1-0.7,0
				c-0.2-0.1-0.8-0.1-1.7-0.3c-0.9-0.1-1.5-0.2-1.7-0.2c-0.1,0-0.2,0-0.3,0c-0.1,0-0.2,0.1-0.2,0.2l-0.2,0.3
				c-0.2,0.2-0.2,0.4-0.2,0.5s0.2,0.3,0.6,0.6l1.7,1.2c0.3,0.2,0.4,0.4,0.5,0.6c0,0.2-0.1,0.5-0.4,0.9l-0.1,0.1
				c-0.4,0.5-0.8,0.6-1.2,0.3l-0.1-0.1c-0.4-0.3-1.1-0.7-1.9-1.4C87.2,110.1,86.9,109.9,86.4,109.6z M85.2,105.9l0.6,0.4
				c0.2,0.2,0.4,0.3,0.5,0.4c0,0,0.1,0,0.2,0s0.2,0,0.2-0.1c0.1-0.1,0.3-0.3,0.5-0.6l0.6-0.8c0.3-0.4,0.4-0.8,0.3-1.2
				c-0.1-0.4-0.3-0.7-0.7-1c-0.2-0.2-0.5-0.3-0.8-0.4c-0.4-0.1-0.7-0.1-0.9,0.1c-0.2,0.1-0.5,0.4-0.7,0.7l-0.2,0.2
				c-0.2,0.2-0.3,0.4-0.3,0.4s-0.1,0.2-0.2,0.3c-0.1,0.1-0.1,0.2-0.1,0.3c0,0,0,0.1,0,0.2s0,0.2,0.1,0.2c0,0,0.1,0.1,0.2,0.2
				s0.2,0.2,0.3,0.3C84.9,105.6,85,105.7,85.2,105.9z"/>
			<path d="M99.9,100.1L99.9,100.1c-0.6,0.6-1.2,1-1.9,1.2c-0.7,0.3-1.4,0.4-2.1,0.4s-1.5-0.2-2.2-0.5s-1.4-0.7-2-1.3
				c-0.5-0.5-0.8-1.1-1-1.8c-0.2-0.7-0.4-1.3-0.3-2c0-0.7,0.2-1.4,0.4-2.1c0.3-0.7,0.7-1.3,1.3-1.9l0.2-0.2c1.1-1,2.4-1.5,3.9-1.5
				s2.8,0.6,3.9,1.7l0.1,0.1c0.7,0.7,1.1,1.5,1.3,2.4c0.2,0.9,0.2,1.9,0,2.9C101.2,98.4,100.7,99.3,99.9,100.1z M93.4,98.4
				L93.4,98.4c0.8,0.8,1.6,1.2,2.6,1.2c0.9,0,1.7-0.3,2.3-0.8c0,0,0,0,0.1,0l0,0c0.7-0.7,1-1.5,1-2.4s-0.3-1.7-0.9-2.4l-0.1-0.1
				c-0.7-0.7-1.5-1-2.4-1.1c-0.9,0-1.7,0.2-2.3,0.9c0,0,0,0-0.1,0.1l-0.1,0.1c0,0-0.1,0.1-0.2,0.2c-0.6,0.6-0.9,1.3-0.8,2.3
				C92.6,97,92.9,97.8,93.4,98.4z"/>
			<path d="M99.9,85.1l0.2-0.1c0.3-0.2,0.6-0.3,0.8-0.3c0.2,0,0.4,0.1,0.7,0.4c2.2,1.9,3.9,3.2,5.1,4c0.1,0.1,0.2,0.1,0.2,0
				c0.1-0.1,0.1-0.2,0.1-0.3c-0.2-0.5-0.5-1.6-1-3.4s-0.8-2.8-1-3.2c-0.1-0.3-0.1-0.5-0.1-0.7c0.1-0.1,0.3-0.4,0.7-0.7
				c0.5-0.3,0.8-0.3,1,0c0.1,0.1,0.1,0.2,0.2,0.4c0.3,0.8,0.6,1.7,0.9,2.6c0.3,1,0.6,2,1,3.2s0.7,2.1,0.8,2.7c0,0.1,0.1,0.3,0.2,0.5
				s0.1,0.3,0.1,0.4s0,0.2,0,0.3c0,0.1,0,0.2,0,0.3c0,0-0.1,0.1-0.2,0.2s-0.2,0.2-0.3,0.3c-0.1,0.1-0.3,0.2-0.5,0.3l-0.3,0.2
				c-0.4,0.3-0.6,0.4-0.9,0.3c-0.2,0-0.6-0.3-1.2-0.7c-0.1,0-0.5-0.4-1.3-1s-1.7-1.3-2.7-2.1s-2.1-1.6-3.3-2.5
				c-0.1,0-0.1-0.1-0.1-0.1c-0.1-0.2-0.1-0.3,0-0.5C99.5,85.5,99.6,85.3,99.9,85.1z"/>
			<path d="M115.7,86.1c0.2,0.3,0.2,0.7,0.2,1c-0.1,0.3-0.3,0.6-0.6,0.7c-0.2,0.1-0.4,0.2-0.7,0.2c-0.2,0-0.3-0.1-0.5-0.2
				c-0.2-0.2-0.3-0.3-0.4-0.5c-0.5-0.8-1.2-2.1-2.1-3.7c-0.5-0.8-1.1-2.1-2-3.8c-0.1-0.1-0.1-0.3-0.2-0.4c0-0.1-0.1-0.2-0.1-0.3
				c0-0.1,0-0.2,0-0.2c0-0.1,0.1-0.1,0.1-0.2c0,0,0.1-0.1,0.1-0.2c0.1-0.1,0.1-0.1,0.2-0.1c0,0,0.1-0.1,0.2-0.1
				c0.1-0.1,0.2-0.1,0.2-0.1l0,0l0,0c0.2-0.1,0.3-0.1,0.5-0.2c0.1,0,0.2,0,0.3,0c0.1,0,0.2,0.1,0.3,0.2c0.1,0.1,0.1,0.2,0.2,0.2
				c0,0,0.1,0.1,0.1,0.2c0.5,0.8,0.8,1.5,1.1,1.9c0.1,0.2,0.3,0.6,0.5,1s0.4,0.8,0.5,1L115.7,86.1z"/>
			<path d="M115.8,80.9c-0.3-0.7-0.6-1.5-1-2.5s-0.6-1.5-0.7-1.7c-0.2-0.5-0.1-0.9,0.5-1.1l0.4-0.2c1-0.4,1.9-0.8,2.7-1
				c0.8-0.2,1.5-0.4,2.1-0.5s1.1-0.1,1.6,0s0.8,0.2,1.1,0.4c0.3,0.1,0.6,0.4,0.8,0.8c0.3,0.4,0.5,0.7,0.7,1.1
				c0.2,0.3,0.4,0.8,0.6,1.4c0.3,0.8,0.5,1.4,0.7,1.9c0.1,0.5,0.2,1,0.1,1.5s-0.2,0.9-0.5,1.3s-0.7,0.7-1.2,1.1
				c-0.6,0.4-1.2,0.8-2,1.1c-0.7,0.4-1.7,0.8-2.9,1.3l-0.2,0.1c-0.4,0.2-0.7,0-0.8-0.4l0,0C117.3,84.5,116.6,83,115.8,80.9z
				 M119.2,83.3L119.2,83.3c0.2,0.1,0.2,0.1,0.3,0.1c0.7-0.3,1.2-0.5,1.7-0.8c0.4-0.2,0.8-0.5,1.1-0.7c0.3-0.2,0.5-0.5,0.6-0.7
				s0.2-0.5,0.2-0.8s0-0.6-0.1-0.9s-0.2-0.7-0.5-1.2c-0.4-0.9-0.8-1.6-1.2-1.9c-0.4-0.4-0.9-0.5-1.6-0.5s-1.6,0.3-2.9,0.8
				c-0.1,0.1-0.2,0.1-0.2,0.2s0,0.1,0,0.2l0,0c0,0.1,0.2,0.5,0.5,1.2s0.5,1.3,0.7,1.8C118.6,81.9,119.1,83,119.2,83.3z"/>
			<path d="M127,76.6c-0.1-0.3-0.2-0.7-0.3-1.3c-0.1-0.6-0.3-1-0.3-1.3c-0.1-0.6-0.3-1-0.3-1.3c-0.1-0.3-0.1-0.5-0.1-0.7
				s0-0.3,0-0.5s0.1-0.2,0.3-0.3c0.1-0.1,0.3-0.2,0.5-0.2c0.2-0.1,0.4-0.1,0.7-0.2c0.6-0.2,1.3-0.3,2-0.6c0.8-0.2,1.3-0.3,1.5-0.4
				c0.7-0.2,1.2-0.2,1.5-0.1s0.5,0.4,0.6,0.9c0.1,0.3,0,0.5-0.1,0.7c-0.2,0.1-0.5,0.3-1.1,0.4c-0.2,0-0.5,0.1-1.2,0.3
				c-0.6,0.1-1.1,0.3-1.6,0.4l-0.4,0.1c-0.3,0.1-0.3,0.5-0.1,1.2c0.1,0.2,0.2,0.6,0.4,1.2c0,0,0.1,0.1,0.2,0.1
				c0.1,0,0.2,0.1,0.2,0.1c0.7-0.2,1.3-0.3,1.6-0.4l1.3-0.3c0.3-0.1,0.5-0.1,0.6,0s0.2,0.3,0.3,0.5c0,0,0,0.1,0,0.2s0,0.1,0,0.2
				c0.1,0.3,0,0.6-0.2,0.7c-0.2,0.2-0.5,0.3-1,0.4c-0.1,0-0.4,0.1-0.8,0.2c-0.4,0.1-0.8,0.2-1.1,0.3l-0.4,0.1
				c-0.1,0-0.1,0.1-0.2,0.2c-0.1,0.1-0.1,0.2-0.1,0.2c0,0.2,0.1,0.6,0.3,1.2l0.1,0.5c0,0.1,0.1,0.2,0.2,0.2c0.1,0,0.2,0.1,0.3,0h0.1
				c0.4-0.1,0.9-0.2,1.4-0.4c0.5-0.1,0.9-0.2,1.1-0.3c0.7-0.2,1.2-0.2,1.4-0.2c0.2,0.1,0.4,0.3,0.5,0.7c0.1,0.4,0.1,0.7,0.1,0.8
				c0,0.1-0.1,0.2-0.3,0.3h-0.2l-3.1,0.8c-0.3,0.1-0.7,0.2-1.2,0.3c-0.6,0.1-1,0.2-1.2,0.3c-0.5,0.1-0.8-0.1-0.9-0.6L127,76.6z"/>
			<path d="M142.9,69.7c0-0.5,0-0.9,0.2-1.2c0.2-0.2,0.4-0.3,0.8-0.4h0.1c0.2,0,0.3,0,0.4,0c0.1,0,0.2,0,0.3,0.1
				c0.1,0,0.2,0.1,0.2,0.1c0.1,0,0.1,0.1,0.1,0.2s0.1,0.2,0.1,0.2s0,0.1,0,0.2s0,0.2,0,0.2c0,0.1,0.1,1,0.3,2.6
				c0.2,1.8,0.4,3.9,0.7,6.2c0.1,0.6-0.1,1-0.5,1.2c-0.2,0.1-0.3,0.1-0.5,0.1c-0.4,0-0.8-0.1-1-0.4c-0.6-0.7-1.6-1.7-2.7-3
				c-1.2-1.3-2-2.2-2.4-2.6c-0.1-0.1-0.1-0.1-0.1-0.1s0,0.1,0,0.2l0.6,5.6c0,0.3,0,0.5-0.2,0.7c-0.1,0.2-0.5,0.3-1,0.3
				c-0.4,0-0.7,0-0.9-0.1s-0.2-0.3-0.3-0.6V79c-0.1-0.5-0.1-1.2-0.3-2.2c-0.1-1-0.2-1.7-0.3-2.2s-0.1-1.2-0.2-2.2
				c-0.1-1-0.2-1.7-0.2-2.2v-0.1c0-0.1,0-0.2,0-0.3c0-0.1,0-0.2,0.1-0.3s0.1-0.2,0.2-0.3c0.1-0.1,0.3-0.1,0.5-0.1h0.1
				c0.3,0,0.6,0,0.7,0.1c0.2,0.1,0.4,0.3,0.6,0.5c1.7,1.9,3.3,3.7,4.9,5.4l0,0l0,0l0,0l-0.3-2.9C143,70.9,143,70.2,142.9,69.7z"/>
			<path d="M152.5,79h-0.1c-0.2,0-0.4-0.1-0.6-0.1c-0.2-0.1-0.3-0.2-0.3-0.3c-0.1-0.1-0.1-0.2-0.1-0.3c0-0.1,0-0.2,0-0.2l0.2-5.5
				c0-1,0.1-1.7,0.1-2.2c0-0.1,0-0.2-0.1-0.2c-0.1-0.1-0.1-0.1-0.2-0.1c-0.2,0-0.6,0-1-0.1h-1.1c-0.2,0-0.4-0.1-0.6-0.2
				c-0.2-0.2-0.2-0.3-0.2-0.5v-0.1v-0.1c0-0.6,0.3-1,0.9-0.9l7.2,0.3c0.3,0,0.5,0.1,0.6,0.3c0.1,0.2,0.1,0.4,0.1,0.7v0.2
				c0,0.5-0.3,0.7-0.8,0.7h-1.1c-0.2,0-0.5,0-1,0c-0.1,0-0.1,0-0.2,0.1c-0.1,0.1-0.1,0.1-0.1,0.2c0,0.6-0.1,1.4-0.1,2.5v1.2
				c-0.1,1.7-0.1,2.9-0.2,3.8c0,0.1,0,0.3-0.1,0.3c0,0.1-0.1,0.2-0.1,0.3c-0.1,0.1-0.2,0.2-0.3,0.3C152.9,79,152.7,79,152.5,79z"/>
			<path d="M166.8,75.1l1.1-3.8c0.1-0.5,0.3-0.9,0.6-1c0.2-0.2,0.6-0.2,1.2-0.1c0.6,0.1,1.2,0.2,1.8,0.4c0.4,0.1,1,0.3,1.8,0.6
				c0.8,0.3,1.2,0.4,1.3,0.4c0.6,0.2,0.8,0.5,0.7,0.8v0.2c-0.1,0.4-0.2,0.7-0.4,0.8c-0.2,0.1-0.4,0.2-0.6,0.1h-0.1
				c-0.3-0.1-0.8-0.3-1.4-0.5c-0.6-0.2-1-0.4-1.3-0.4c-0.7-0.2-1.2-0.2-1.3,0.1c-0.1,0.3-0.2,0.5-0.3,0.8c-0.1,0.4-0.2,0.8-0.3,1.1
				c0,0.2,0.1,0.4,0.3,0.5s0.6,0.3,1.2,0.4c0.1,0,0.3,0.1,0.6,0.2s0.5,0.1,0.7,0.2l0.3,0.1c0.4,0.1,0.6,0.2,0.7,0.3s0.1,0.3,0,0.6
				l-0.1,0.2c-0.1,0.2-0.1,0.3-0.2,0.4c-0.1,0.1-0.1,0.2-0.2,0.2c-0.1,0-0.1,0.1-0.2,0.1c-0.1,0-0.2,0-0.2,0c-0.1,0-0.2,0-0.3-0.1
				c-0.1,0-0.2-0.1-0.3-0.1c-0.8-0.2-1.6-0.4-2.3-0.6l-0.2-0.1c-0.1,0-0.2,0-0.4,0c-0.1,0.1-0.2,0.2-0.2,0.3
				c-0.5,1.6-0.7,2.4-0.7,2.4c-0.1,0.3-0.1,0.5-0.2,0.6c-0.1,0.1-0.2,0.3-0.3,0.4s-0.3,0.1-0.5,0.1s-0.5-0.1-0.8-0.2
				c-0.1,0-0.2-0.1-0.3-0.1s-0.1-0.1-0.2-0.1l-0.1-0.1l-0.1-0.1c0-0.1,0-0.1,0-0.1s0-0.1,0-0.2s0-0.2,0-0.2s0-0.1,0-0.2
				s0-0.2,0.1-0.2c0.1-0.6,0.3-1.3,0.5-1.9c0.1-0.3,0.2-0.6,0.3-1.1C166.6,75.7,166.7,75.3,166.8,75.1z"/>
			<path d="M179.2,73.4l0.1,0.1c0.1,0,0.2,0.1,0.2,0.1c0.1,0.1,0.1,0.1,0.2,0.2c0.1,0,0.1,0.1,0.1,0.2s0.1,0.1,0.1,0.2
				c0,0,0,0.1,0,0.2s0,0.1,0,0.2c0,0,0,0.1,0,0.2s0,0.1,0,0.1V75c0,0.1,0,0.1,0,0.1c0,0.1-0.1,0.2-0.2,0.4c-0.1,0.2-0.1,0.3-0.2,0.5
				c-0.1,0.1-0.1,0.3-0.2,0.4c-0.1,0.2-0.2,0.4-0.4,0.8c-0.2,0.3-0.3,0.6-0.4,0.8l-1,2.3c-0.3,0.6-0.3,1.2-0.1,1.8
				c0.2,0.5,0.6,0.9,1.3,1.2l0,0c0.3,0.1,0.7,0.2,1,0.2s0.6-0.2,0.8-0.3c0.2-0.2,0.4-0.4,0.6-0.6c0.2-0.2,0.3-0.4,0.4-0.7
				c0.4-0.8,0.7-1.5,1-2.3c0.1-0.3,0.3-0.8,0.6-1.4s0.5-1.1,0.6-1.5c0.2-0.3,0.4-0.5,0.5-0.6c0.2-0.1,0.5-0.1,0.8,0.1
				c0.4,0.2,0.7,0.4,0.8,0.5c0.1,0.2,0.1,0.5-0.1,0.9c-0.4,1-0.8,2-1.2,2.9c-0.4,1-0.8,1.8-1.1,2.5c-0.4,0.7-0.8,1.3-1.4,1.9
				c-0.9,0.8-2,1-3.4,0.7c-0.4-0.1-0.8-0.2-1.1-0.3c-1-0.4-1.8-1.2-2.3-2.2s-0.5-1.9-0.1-2.8c1-2.5,1.8-4.4,2.3-5.6l0.1-0.3
				c0.1-0.1,0.1-0.2,0.2-0.3c0.1-0.1,0.1-0.2,0.3-0.3c0.1-0.1,0.3-0.2,0.5-0.2C178.7,73.2,178.9,73.3,179.2,73.4z"/>
			<path d="M194.4,82.8c0.3-0.5,0.6-0.7,0.9-0.8c0.3-0.1,0.5,0,0.9,0.2h0.1c0.1,0.1,0.3,0.2,0.4,0.3c0.1,0.1,0.2,0.2,0.2,0.3
				c0,0.1,0.1,0.2,0.1,0.2c0,0.1,0,0.1,0,0.2s0,0.2-0.1,0.2c0,0,0,0.1-0.1,0.2s-0.1,0.2-0.1,0.2c-0.1,0.1-0.5,0.9-1.4,2.3
				c-1,1.6-2.1,3.3-3.3,5.2c-0.3,0.5-0.7,0.7-1.1,0.6c-0.2-0.1-0.3-0.1-0.4-0.2c-0.4-0.2-0.5-0.5-0.6-0.9c-0.1-0.9-0.2-2.3-0.3-4
				s-0.2-2.9-0.2-3.6c0-0.1,0-0.1-0.1-0.2c0,0-0.1,0-0.2,0.2l-3,4.8c-0.2,0.3-0.3,0.4-0.5,0.4s-0.5-0.1-1-0.4
				c-0.4-0.2-0.6-0.5-0.6-0.7s0-0.4,0.1-0.6l0.1-0.2c0.3-0.4,0.7-1.1,1.2-1.9s0.9-1.5,1.2-1.9s0.7-1,1.2-1.9
				c0.5-0.8,0.9-1.5,1.2-1.9l0.1-0.1c0.1-0.1,0.1-0.2,0.2-0.3c0.1-0.1,0.1-0.1,0.2-0.2c0.1-0.1,0.2-0.1,0.4-0.1
				c0.1,0,0.3,0.1,0.5,0.2l0.1,0.1c0.3,0.2,0.5,0.3,0.5,0.5c0.1,0.2,0.1,0.4,0.1,0.8c0.1,2.5,0.3,4.9,0.4,7.3l0,0l0,0l0,0l1.6-2.5
				C193.7,83.9,194.1,83.3,194.4,82.8z"/>
			<path d="M196.8,88.8c0.5-0.5,1.1-1.2,1.7-2c0.7-0.8,1.1-1.3,1.2-1.4c0.4-0.4,0.8-0.4,1.2-0.1l0.3,0.3c0.8,0.7,1.5,1.4,2.1,2
				s1,1.2,1.4,1.6c0.3,0.5,0.6,0.9,0.7,1.4c0.1,0.5,0.2,0.9,0.2,1.2c0,0.3-0.1,0.7-0.3,1.1s-0.4,0.8-0.7,1.1c-0.2,0.3-0.5,0.7-1,1.1
				c-0.5,0.6-1,1.1-1.4,1.4s-0.9,0.6-1.3,0.7c-0.5,0.2-0.9,0.2-1.4,0.1s-1-0.3-1.6-0.6c-0.6-0.3-1.2-0.8-1.9-1.3
				c-0.6-0.5-1.4-1.2-2.4-2l-0.2-0.2c-0.3-0.3-0.3-0.6,0-0.9l0,0C194.2,91.8,195.3,90.5,196.8,88.8z M196.1,93c0,0,0,0.1,0,0.2
				s0,0.1,0.1,0.1c0.6,0.5,1,0.9,1.4,1.2c0.4,0.3,0.8,0.5,1.1,0.7s0.7,0.3,0.9,0.3s0.5,0,0.8-0.2c0.3-0.1,0.5-0.3,0.8-0.5
				c0.2-0.2,0.5-0.5,0.9-0.9c0.7-0.8,1.1-1.4,1.2-1.9c0.1-0.5,0-1.1-0.3-1.7s-1-1.3-2-2.2c-0.1-0.1-0.2-0.1-0.2-0.1
				c-0.1,0-0.1,0-0.2,0.1l0,0c-0.1,0.1-0.4,0.4-0.8,1c-0.5,0.6-0.9,1-1.3,1.4C197.1,91.9,196.4,92.7,196.1,93z"/>
			<path d="M208.7,110.8L208.7,110.8c-0.4-0.7-0.7-1.3-0.8-2.1c-0.1-0.7-0.1-1.5,0-2.2s0.4-1.4,0.9-2.1c0.4-0.7,1-1.2,1.7-1.7
				c0.6-0.4,1.2-0.6,1.9-0.7s1.4-0.1,2.1,0.1c0.7,0.1,1.3,0.4,2,0.9c0.6,0.4,1.2,1,1.6,1.6l0.1,0.2c0.8,1.3,1,2.6,0.7,4.1
				s-1.1,2.7-2.4,3.5l-0.1,0.1c-0.8,0.5-1.7,0.8-2.6,0.9c-1,0.1-1.9-0.1-2.8-0.6C210,112.4,209.3,111.7,208.7,110.8z M211.6,104.8
				l-0.1,0.1c-0.8,0.5-1.3,1.3-1.5,2.2c-0.2,0.9-0.1,1.7,0.4,2.4c0,0,0,0,0,0.1c0,0,0,0,0,0.1c0.5,0.8,1.3,1.3,2.2,1.5
				s1.8,0,2.5-0.5l0.1-0.1c0.8-0.5,1.3-1.2,1.5-2.1s0.1-1.7-0.4-2.4c0,0,0-0.1-0.1-0.1l-0.1-0.1c0,0-0.1-0.1-0.1-0.2
				c-0.5-0.7-1.1-1.1-2.1-1.2C213.1,104.2,212.3,104.4,211.6,104.8z"/>
			<path d="M216.7,115.4c0.5-0.2,0.9-0.4,1.1-0.5c0.2-0.1,0.6-0.3,1.1-0.5s0.8-0.4,1.1-0.5c0.7-0.3,1.5-0.6,2.2-0.9
				c0.1,0,0.3,0,0.5,0.1s0.4,0.2,0.4,0.3c0.5,1,0.9,1.7,1.1,2.3c0.2,0.5,0.5,1.1,0.7,1.7s0.3,1.2,0.2,1.8s-0.4,1.2-1,1.7
				c-0.3,0.3-0.7,0.6-1.2,0.8c-0.6,0.3-1.3,0.4-1.9,0.4c-0.6,0-1.1-0.3-1.5-0.7c-0.2-0.2-0.4-0.3-0.5-0.3c-0.2,0.1-0.3,0.3-0.5,0.7
				c-0.1,0.2-0.3,0.5-0.6,1c-0.3,0.4-0.5,0.8-0.7,1.1c-0.2,0.3-0.4,0.5-0.6,0.6c-0.3,0.2-0.7-0.1-0.9-0.7l-0.2-0.4
				c-0.2-0.4-0.2-0.6-0.2-0.8c0-0.2,0.1-0.4,0.4-0.7c0.2-0.2,0.5-0.6,1.1-1.4s0.9-1.2,1.1-1.4c0-0.1,0.1-0.1,0.1-0.3
				c0-0.1,0-0.2,0-0.3l-0.1-0.3c-0.1-0.3-0.2-0.4-0.4-0.4c-0.1,0-0.4,0.1-0.8,0.3l-1.9,0.9c-0.3,0.1-0.6,0.2-0.8,0.1
				s-0.4-0.3-0.6-0.8v-0.1c-0.3-0.6-0.2-1,0.3-1.2l0.1-0.1c0.5-0.2,1.2-0.6,2.2-1C215.9,115.7,216.2,115.6,216.7,115.4z
				 M220.5,116.2l-0.7,0.3c-0.3,0.1-0.4,0.2-0.6,0.3c0,0-0.1,0.1-0.1,0.2s0,0.2,0,0.2c0.1,0.2,0.2,0.4,0.3,0.7l0.4,0.9
				c0.2,0.5,0.5,0.8,0.9,0.9s0.8,0.1,1.2-0.1c0.3-0.1,0.5-0.3,0.7-0.5c0.3-0.3,0.4-0.5,0.4-0.8s-0.1-0.6-0.3-1l-0.1-0.2
				c-0.1-0.2-0.2-0.4-0.2-0.5s-0.1-0.2-0.2-0.3c-0.1-0.1-0.1-0.2-0.2-0.3c0,0-0.1-0.1-0.2-0.1c-0.1,0-0.2-0.1-0.2,0
				c0,0-0.1,0-0.3,0.1c-0.2,0-0.3,0.1-0.4,0.1C220.9,116,220.7,116.1,220.5,116.2z"/>
			<path d="M222.2,132.9c0.2,0,0.3-0.1,0.3-0.3c0.1-0.1,0.1-0.3,0-0.4c0-0.1-0.1-0.3-0.1-0.5c0-0.1,0-0.1-0.1-0.2c0-0.1,0-0.1,0-0.1
				l0,0l0,0l0,0c0,0,0,0,0-0.1v-0.1c-0.1-0.4,0.1-0.8,0.7-1c0,0,0,0,0.1,0l0,0c0.2,0,0.3-0.1,0.4,0c0.1,0,0.2,0.1,0.3,0.2
				c0.1,0.1,0.1,0.2,0.1,0.2c0,0.1,0.1,0.1,0.1,0.2c0.1,0.2,0.2,0.6,0.3,1c0.2,0.8,0.3,1.4,0.3,1.8c0,0.4-0.1,0.7-0.3,0.8
				c-0.2,0.2-0.7,0.4-1.4,0.6c-0.4,0.1-0.7,0.2-1.1,0.2c-0.4,0-0.7,0.1-1.1,0c-0.4,0-0.7-0.1-1-0.2c-0.3-0.1-0.5-0.4-0.7-0.6
				c-0.3-0.5-0.5-1.2-0.7-2c-0.1-0.4-0.2-0.9-0.3-1.3c-0.1-0.4-0.1-0.9-0.1-1.4s0.1-1,0.3-1.4c0.2-0.5,0.4-0.9,0.7-1.3
				s0.7-0.8,1.2-1.1c0.5-0.3,1.2-0.6,1.9-0.8c0.4-0.1,0.7-0.2,1-0.2s0.7-0.1,1.1-0.1c0.4,0,0.8,0.1,1.2,0.2s0.8,0.3,1.2,0.6
				c0.4,0.3,0.8,0.6,1.1,1.1c0.3,0.4,0.7,1,1,1.7s0.6,1.5,0.9,2.4l0,0c0.1,0.6,0.1,0.9,0,1.1c-0.1,0.2-0.4,0.4-0.8,0.5
				c-0.6,0.2-0.9-0.1-1.1-0.8c0-0.1-0.1-0.3-0.1-0.5s-0.1-0.4-0.1-0.7c-0.1-0.2-0.1-0.5-0.2-0.7c-0.1-0.2-0.2-0.5-0.4-0.7
				c-0.2-0.3-0.3-0.5-0.5-0.7s-0.4-0.4-0.7-0.6s-0.6-0.3-0.9-0.4c-0.3-0.1-0.7-0.2-1.1-0.2c-0.4,0-0.9,0-1.4,0.2
				c-0.6,0.2-1,0.4-1.4,0.8c-0.4,0.4-0.6,0.8-0.8,1.3c-0.1,0.5-0.2,0.9-0.2,1.4s0.1,0.9,0.2,1.3c0.1,0.4,0.3,0.8,0.5,1
				s0.4,0.3,0.6,0.3c0.1,0,0.4-0.1,0.7-0.2L222.2,132.9z"/>
			<path d="M221,146.1l-0.1-0.5c0-0.2,0-0.3,0-0.4c0-0.1,0-0.2,0-0.3s0.1-0.1,0.1-0.2c0,0,0.1-0.1,0.2-0.1c0.1-0.1,0.2-0.1,0.3-0.1
				s0.3-0.1,0.5-0.2c0.2-0.1,0.4-0.2,0.6-0.3c0.2-0.1,0.3-0.3,0.3-0.7s0-0.9,0-1.5c-0.1-0.6-0.2-1-0.3-1.5c-0.1-0.4-0.3-0.6-0.5-0.7
				c-0.2,0-0.4-0.1-0.6-0.1c-0.2,0-0.4-0.1-0.5-0.1s-0.3-0.1-0.4-0.2c-0.1-0.1-0.2-0.2-0.3-0.3s-0.1-0.3-0.1-0.5c0-0.1,0-0.3,0-0.5
				s0.1-0.4,0.2-0.5c0.1-0.1,0.2-0.2,0.4-0.2c0.1,0,0.2,0,0.3,0c0.5,0.2,1.6,0.4,3.1,0.8c1.5,0.4,2.7,0.7,3.6,1
				c0.4,0.1,0.8,0.2,1.3,0.4c0.5,0.1,0.8,0.2,1,0.3s0.4,0.1,0.7,0.2c0.2,0.1,0.4,0.2,0.5,0.3s0.2,0.2,0.3,0.4s0.1,0.4,0.2,0.7v0.2
				c0.1,0.5-0.1,0.8-0.3,1.1c-0.3,0.2-1.1,0.6-2.4,1.2c-2.1,1-4.1,1.9-5.9,2.8c0,0-0.2,0.1-0.3,0.2c-0.2,0.1-0.3,0.2-0.4,0.2
				c-0.1,0-0.2,0.1-0.3,0.1s-0.2,0.1-0.3,0.1C221.3,147.1,221,146.8,221,146.1z M224.8,140.2L224.8,140.2c-0.1,0-0.2,0-0.2,0.1
				s-0.1,0.1-0.1,0.2v0.4c0,0.2,0,0.7,0.1,1.3c0,0.1,0,0.3,0.1,0.4c0,0.2,0,0.3,0.1,0.4c0,0.1,0,0.1,0.1,0.1s0.1,0,0.2,0
				c1-0.5,2.2-1,3.5-1.7c0.1,0,0.1-0.1,0.1-0.1c0-0.1,0-0.1-0.1-0.1c-0.4-0.1-1-0.3-1.8-0.5C225.9,140.4,225.3,140.3,224.8,140.2z"
				/>
			<path d="M230.1,156.2c0.5,0,0.9,0.2,1.1,0.4c0.2,0.2,0.3,0.5,0.2,0.8v0.1c0,0.2,0,0.3-0.1,0.4c0,0.1-0.1,0.2-0.1,0.3
				c-0.1,0.1-0.1,0.1-0.1,0.2c0,0-0.1,0.1-0.2,0.1c-0.1,0-0.2,0-0.2,0s-0.1,0-0.2,0s-0.2,0-0.2,0c-0.1,0-1,0-2.6-0.1
				c-1.8-0.1-3.9-0.2-6.2-0.4c-0.6,0-1-0.2-1.1-0.6c0-0.2,0-0.4,0-0.5c0-0.4,0.2-0.7,0.5-0.9c0.8-0.5,1.9-1.3,3.4-2.2s2.5-1.6,3-2
				c0.1,0,0.1-0.1,0.1-0.1s-0.1-0.1-0.2-0.1l-5.6-0.3c-0.3,0-0.5-0.1-0.6-0.3s-0.2-0.5-0.2-1c0-0.4,0.1-0.7,0.3-0.9
				c0.2-0.1,0.4-0.2,0.6-0.2h0.2c0.5,0,1.2,0.1,2.2,0.1s1.7,0.1,2.2,0.1s1.2,0.1,2.2,0.1c1,0.1,1.7,0.1,2.2,0.1h0.1
				c0.1,0,0.2,0,0.3,0s0.2,0.1,0.3,0.1c0.1,0.1,0.2,0.2,0.2,0.3c0.1,0.1,0.1,0.3,0.1,0.5v0.1c0,0.3-0.1,0.6-0.2,0.7
				c-0.1,0.1-0.3,0.3-0.6,0.5c-2.1,1.4-4.1,2.7-6.1,3.9l0,0l0,0l0,0l2.9,0.2C228.8,156.1,229.6,156.2,230.1,156.2z"/>
			<path d="M221.1,162.7c-0.4-0.1-0.7-0.2-0.9-0.5s-0.3-0.6-0.2-0.9c0-0.2,0.1-0.5,0.3-0.7c0.1-0.1,0.3-0.2,0.5-0.3s0.5-0.1,0.7,0
				c0.9,0.1,2.3,0.4,4.2,0.7c0.9,0.2,2.3,0.4,4.2,0.7c0.2,0,0.3,0.1,0.4,0.1c0.1,0,0.2,0.1,0.3,0.1s0.1,0.1,0.2,0.2
				c0,0.1,0.1,0.1,0.1,0.2c0,0,0,0.1,0,0.2c0,0.1,0,0.2,0,0.2s0,0.1,0,0.3c0,0.1,0,0.2,0,0.3l0,0c0,0,0,0,0,0.1
				c0,0.2-0.1,0.3-0.2,0.5c-0.1,0.1-0.1,0.2-0.2,0.3c-0.1,0-0.2,0.1-0.3,0.1s-0.2,0-0.2,0s-0.1,0-0.2,0c-0.9-0.1-1.7-0.2-2.1-0.3
				c-0.2,0-0.6-0.1-1.1-0.2c-0.5-0.1-0.9-0.1-1.1-0.2L221.1,162.7z"/>
			<path d="M218.1,168.3c0.3-0.8,0.6-1.5,0.9-2c0.4-0.5,0.8-0.9,1.5-1.2c0,0,0.1,0,0.1-0.1c0.1,0,0.1-0.1,0.2-0.1
				c0.1,0,0.1-0.1,0.2-0.1c0.1,0,0.2-0.1,0.3-0.1s0.2,0,0.2,0c0.1,0,0.2,0,0.2,0c0.3,0.1,0.5,0.4,0.4,1c0,0.3,0,0.5-0.1,0.6
				c0,0.1-0.1,0.2-0.2,0.3c-0.1,0.1-0.2,0.1-0.5,0.3c-0.2,0.1-0.5,0.3-0.8,0.5c-0.4,0.4-0.7,0.8-0.8,1.3s-0.1,0.9,0.1,1.3
				c0.2,0.4,0.5,0.7,0.8,0.8c0.1,0,0.2,0,0.4,0c0.4-0.1,0.8-0.4,1.2-0.8c0.4-0.5,0.8-1,1.1-1.6c0.4-0.6,0.7-1,0.8-1.2
				c0.7-0.7,1.5-0.9,2.4-0.6c0.2,0.1,0.4,0.2,0.8,0.3c0.9,0.4,1.4,1.2,1.5,2.3c0.1,0.5,0,1-0.1,1.6c-0.1,0.5-0.3,1-0.6,1.4
				c-0.2,0.4-0.6,0.8-1,1.1s-0.9,0.5-1.4,0.5h-0.1c-0.2-0.1-0.3-0.3-0.4-0.6c-0.1-0.3-0.1-0.6,0-0.7c0.1-0.3,0.4-0.6,0.9-0.7
				c0.5-0.2,0.8-0.6,1-1.2c0.2-0.6,0.1-1.1-0.2-1.5c-0.1-0.2-0.3-0.3-0.5-0.3c-0.2-0.1-0.4,0-0.7,0.1c-0.2,0.1-0.4,0.3-0.6,0.5
				c-0.9,1.2-1.6,2.1-2.1,2.7c-0.3,0.4-0.7,0.7-1.2,0.8s-1,0.1-1.6-0.1c-0.3-0.1-0.6-0.2-0.9-0.4c-0.6-0.3-1-0.9-1.3-1.7
				C217.9,169.9,217.9,169.1,218.1,168.3L218.1,168.3z"/>
			<path d="M213.7,181.8l0.2-0.5c0.1-0.2,0.1-0.3,0.2-0.4c0-0.1,0.1-0.2,0.2-0.2c0.1-0.1,0.1-0.1,0.2-0.1c0,0,0.1,0,0.3,0
				c0.1,0,0.2,0,0.3,0s0.3,0,0.5,0.1c0.2,0,0.4,0,0.7,0.1c0.2,0,0.4-0.1,0.6-0.5c0.2-0.3,0.5-0.8,0.7-1.3s0.4-1,0.4-1.4
				c0.1-0.4,0-0.7-0.1-0.9c-0.1-0.1-0.3-0.3-0.5-0.4c-0.2-0.2-0.3-0.3-0.4-0.4c-0.1-0.1-0.2-0.2-0.3-0.3s-0.1-0.3-0.1-0.4
				c0-0.2,0.1-0.3,0.1-0.5c0.1-0.1,0.1-0.3,0.2-0.5c0.1-0.2,0.3-0.3,0.4-0.4c0.2-0.1,0.3-0.1,0.5,0c0.1,0,0.2,0.1,0.3,0.2
				c0.4,0.4,1.2,1.2,2.3,2.3c1.2,1.1,2,2,2.6,2.6c0.3,0.3,0.6,0.6,0.9,0.9c0.3,0.3,0.6,0.6,0.7,0.7c0.2,0.2,0.3,0.3,0.5,0.5
				s0.3,0.4,0.3,0.5s0,0.3,0,0.5s-0.1,0.4-0.2,0.7l-0.1,0.2c-0.2,0.5-0.5,0.7-0.8,0.8s-1.2,0-2.7-0.1c-2.3-0.2-4.5-0.3-6.5-0.4
				c0,0-0.2,0-0.4,0s-0.3,0-0.4,0c-0.1,0-0.2,0-0.3,0s-0.2-0.1-0.3-0.1C213.5,182.8,213.5,182.4,213.7,181.8z M219.9,178.5
				L219.9,178.5c-0.1,0-0.2,0-0.2,0c-0.1,0-0.1,0.1-0.1,0.1l-0.2,0.4c-0.1,0.2-0.3,0.6-0.5,1.2c0,0.1-0.1,0.2-0.2,0.4
				c-0.1,0.2-0.1,0.3-0.1,0.4c0,0.1,0,0.1,0,0.2c0,0.1,0.1,0.1,0.1,0.1c1.1,0.1,2.4,0.2,3.9,0.3c0.1,0,0.1,0,0.1-0.1s0-0.1,0-0.2
				c-0.3-0.3-0.7-0.8-1.3-1.3C220.8,179.3,220.3,178.8,219.9,178.5z"/>
			<path d="M210,187.8l0.1-0.1c0.1-0.2,0.3-0.4,0.4-0.4c0.2-0.1,0.3-0.1,0.4-0.1c0.1,0,0.2,0,0.3,0.1c0.1,0,0.1,0.1,0.2,0.1l4.6,2.9
				c0.8,0.5,1.5,0.9,1.9,1.2c0.1,0,0.1,0.1,0.2,0c0.1,0,0.2-0.1,0.2-0.1c0.1-0.2,0.3-0.5,0.6-0.9l0.6-1c0.1-0.2,0.3-0.3,0.5-0.4
				c0.2-0.1,0.4,0,0.6,0.1c0,0,0.1,0,0.1,0.1h0.1c0.5,0.3,0.7,0.8,0.4,1.2l-3.8,6.1c-0.2,0.3-0.4,0.4-0.5,0.4
				c-0.2,0-0.4-0.1-0.7-0.3l-0.2-0.1c-0.4-0.3-0.5-0.6-0.2-1.1l0.6-0.9c0.1-0.2,0.3-0.5,0.5-0.8c0-0.1,0-0.1,0-0.3
				c0-0.1-0.1-0.2-0.1-0.2c-0.5-0.3-1.2-0.8-2.1-1.3l-1-0.7c-1.4-0.9-2.5-1.6-3.2-2c-0.1-0.1-0.2-0.2-0.3-0.2
				c-0.1-0.1-0.1-0.2-0.2-0.3c-0.1-0.1-0.1-0.3-0.1-0.4C209.8,188.1,209.9,188,210,187.8z"/>
			<path d="M206.3,195.6c-0.3-0.2-0.5-0.5-0.5-0.9c-0.1-0.3,0-0.6,0.2-0.9c0.1-0.2,0.3-0.3,0.6-0.4c0.1-0.1,0.3-0.1,0.6,0
				c0.2,0.1,0.4,0.2,0.6,0.3c0.8,0.6,1.9,1.5,3.4,2.6c0.7,0.6,1.9,1.5,3.3,2.7c0.1,0.1,0.2,0.2,0.3,0.3s0.1,0.2,0.2,0.2
				s0.1,0.1,0.1,0.2c0,0.1,0,0.1,0,0.2c0,0,0,0.1-0.1,0.2c0,0.1-0.1,0.2-0.1,0.2s-0.1,0.1-0.2,0.2c-0.1,0.1-0.1,0.2-0.2,0.2l0,0l0,0
				c-0.1,0.1-0.2,0.2-0.4,0.3c-0.1,0.1-0.2,0.1-0.3,0.1s-0.2,0-0.3-0.1s-0.2-0.1-0.2-0.1s-0.1-0.1-0.2-0.1c-0.8-0.6-1.3-1-1.7-1.3
				c-0.2-0.2-0.5-0.4-0.9-0.7s-0.7-0.5-0.9-0.7L206.3,195.6z"/>
			<path d="M199.9,200.1L199.9,200.1c0.6-0.6,1.2-1,1.9-1.2c0.7-0.3,1.4-0.4,2.1-0.4s1.5,0.2,2.2,0.5s1.4,0.7,2,1.3
				c0.5,0.5,0.8,1.1,1,1.8s0.4,1.3,0.4,2s-0.2,1.4-0.4,2.1s-0.7,1.3-1.3,1.9l-0.2,0.2c-1.1,1-2.4,1.5-3.9,1.5s-2.8-0.6-3.9-1.7
				l-0.1-0.1c-0.7-0.7-1.1-1.5-1.3-2.4s-0.2-1.9,0-2.9C198.7,201.7,199.2,200.9,199.9,200.1z M206.4,201.8l-0.1-0.1
				c-0.7-0.7-1.5-1.1-2.5-1.1c-0.9,0-1.7,0.3-2.3,0.8c0,0,0,0-0.1,0l0,0c-0.7,0.7-1,1.5-1,2.4s0.3,1.7,0.9,2.4l0.1,0.1
				c0.7,0.7,1.5,1,2.4,1.1c0.9,0,1.7-0.3,2.3-0.9c0,0,0,0,0.1-0.1l0.1-0.1c0,0,0.1-0.1,0.2-0.2c0.6-0.6,0.9-1.3,0.8-2.3
				C207.2,203.2,206.9,202.4,206.4,201.8z"/>
			<path d="M194.6,217.2c0.3,0.5,0.4,0.8,0.4,1.1s-0.2,0.5-0.5,0.7l-0.1,0.1c-0.1,0.1-0.3,0.2-0.4,0.2c-0.1,0.1-0.2,0.1-0.3,0.1
				s-0.2,0-0.2,0c-0.1,0-0.1,0-0.2-0.1c-0.1-0.1-0.1-0.1-0.2-0.1c0,0-0.1-0.1-0.2-0.2s-0.1-0.1-0.1-0.2c-0.1-0.1-0.6-0.8-1.5-2.2
				c-1.1-1.5-2.2-3.2-3.5-5.1c-0.4-0.5-0.4-0.9-0.1-1.2c0.1-0.1,0.2-0.3,0.4-0.3c0.3-0.2,0.7-0.3,1.1-0.2c0.9,0.3,2.2,0.7,3.8,1.3
				s2.8,1,3.4,1.2c0.1,0,0.1,0,0.2,0c0,0,0-0.1-0.1-0.2l-3.2-4.6c-0.2-0.2-0.2-0.5-0.2-0.7s0.3-0.4,0.7-0.7s0.6-0.4,0.8-0.3
				c0.2,0,0.4,0.2,0.5,0.4l0.1,0.2c0.3,0.4,0.7,1,1.3,1.8s1,1.4,1.3,1.8c0.3,0.4,0.7,1,1.3,1.8s1,1.4,1.3,1.8l0.1,0.1
				c0.1,0.1,0.1,0.2,0.2,0.3c0,0.1,0.1,0.2,0.1,0.3s0,0.2-0.1,0.4c-0.1,0.1-0.2,0.2-0.4,0.4l-0.1,0.1c-0.3,0.2-0.5,0.3-0.7,0.3
				s-0.4-0.1-0.8-0.2c-2.4-0.8-4.6-1.6-6.8-2.4l0,0l0,0l0,0l1.7,2.4C193.9,216.2,194.3,216.8,194.6,217.2z"/>
		</g>
		<g>
			<path d="M131.6,230.4c-0.1,0.4-0.3,0.7-0.5,0.9c-0.3,0.2-0.6,0.3-0.9,0.2c-0.2,0-0.5-0.2-0.7-0.4c-0.1-0.1-0.2-0.3-0.3-0.5
				c0-0.2-0.1-0.5,0-0.7c0.2-1,0.4-2.4,0.8-4.3c0.2-0.9,0.5-2.4,0.9-4.2c0-0.2,0.1-0.3,0.1-0.4c0-0.1,0.1-0.2,0.1-0.3
				s0.1-0.1,0.2-0.2c0.1,0,0.1-0.1,0.2-0.1c0,0,0.1,0,0.2,0c0.1,0,0.2,0,0.2,0s0.1,0,0.3,0c0.1,0,0.2,0,0.3,0c0,0,0,0,0.1,0
				c0,0,0,0,0.1,0c0.2,0,0.3,0.1,0.4,0.2c0.1,0.1,0.2,0.2,0.2,0.2c0,0.1,0.1,0.2,0.1,0.3s0,0.2,0,0.2s0,0.1,0,0.2
				c-0.2,0.9-0.3,1.7-0.4,2.1c0,0.2-0.1,0.6-0.2,1.1c-0.1,0.5-0.2,0.9-0.2,1.1L131.6,230.4z"/>
			<path d="M140.4,223.3c0.1-0.5,0.2-0.9,0.5-1.1c0.2-0.2,0.5-0.2,0.9-0.2h0.1c0.2,0,0.3,0,0.4,0.1c0.1,0,0.2,0.1,0.3,0.1
				c0.1,0.1,0.1,0.1,0.2,0.2c0,0,0.1,0.1,0.1,0.2c0,0.1,0,0.2,0,0.2s0,0.1,0,0.2c0,0.1,0,0.2,0,0.2c0,0.1-0.1,1-0.3,2.7
				c-0.2,1.9-0.4,3.9-0.7,6.2c-0.1,0.6-0.3,1-0.7,1c-0.2,0-0.4,0-0.5,0c-0.4,0-0.7-0.2-0.9-0.6c-0.5-0.8-1.2-2-2-3.5
				c-0.9-1.5-1.5-2.6-1.8-3.1c0-0.1-0.1-0.1-0.1-0.1s-0.1,0.1-0.1,0.2l-0.6,5.7c0,0.3-0.1,0.5-0.3,0.6s-0.5,0.2-1,0.1
				c-0.4,0-0.7-0.2-0.8-0.3c-0.1-0.2-0.2-0.4-0.1-0.6v-0.2c0.1-0.5,0.1-1.3,0.2-2.3c0.1-1,0.2-1.8,0.2-2.3c0.1-0.5,0.1-1.2,0.3-2.2
				c0.1-1,0.2-1.7,0.3-2.2v-0.1c0-0.1,0-0.2,0.1-0.3c0-0.1,0.1-0.2,0.1-0.3c0.1-0.1,0.2-0.2,0.3-0.2s0.3-0.1,0.5,0h0.1
				c0.3,0,0.6,0.1,0.7,0.2c0.1,0.1,0.3,0.3,0.5,0.7c1.2,2.2,2.5,4.3,3.6,6.4l0,0l0,0l0,0l0.3-2.9
				C140.2,224.6,140.3,223.9,140.4,223.3z"/>
			<path d="M143.2,227.3c0-0.7-0.1-1.6-0.1-2.7s-0.1-1.7-0.1-1.8c0-0.5,0.3-0.8,0.8-0.9h0.5c1.1,0,2.1,0,2.9,0
				c0.8,0.1,1.6,0.1,2.1,0.3c0.6,0.1,1.1,0.3,1.5,0.6s0.7,0.5,0.9,0.8c0.2,0.2,0.4,0.6,0.5,1.1s0.2,0.9,0.2,1.2
				c0,0.4,0.1,0.9,0.1,1.5c0,0.8,0,1.5-0.1,2s-0.2,1-0.5,1.5c-0.2,0.4-0.5,0.8-0.9,1s-0.9,0.5-1.6,0.6s-1.4,0.3-2.3,0.4
				c-0.8,0.1-1.9,0.1-3.2,0.2h-0.2c-0.4,0-0.6-0.2-0.6-0.7l0,0C143.3,231.3,143.3,229.6,143.2,227.3z M145.6,230.9
				c0,0.1,0,0.1,0.1,0.1s0.1,0.1,0.2,0.1c0.7,0,1.4-0.1,1.8-0.1c0.5,0,0.9-0.1,1.3-0.3c0.4-0.1,0.7-0.3,0.8-0.4
				c0.2-0.2,0.3-0.4,0.5-0.7c0.1-0.3,0.2-0.6,0.2-0.9c0-0.3,0-0.8,0-1.3c0-1-0.2-1.8-0.4-2.2c-0.2-0.5-0.7-0.8-1.4-1s-1.7-0.3-3-0.2
				c-0.1,0-0.2,0-0.3,0.1c0,0-0.1,0.1,0,0.2l0,0c0,0.1,0,0.5,0,1.3s0,1.4,0.1,1.9C145.5,229.3,145.6,230.5,145.6,230.9z"/>
			<path d="M156.3,231.1c0,0.4,0,0.7-0.2,1s-0.5,0.4-0.8,0.5c-0.2,0-0.5,0-0.7-0.1c-0.1-0.1-0.3-0.2-0.4-0.4
				c-0.1-0.2-0.2-0.4-0.2-0.6c-0.1-1-0.3-2.4-0.5-4.3c-0.1-0.9-0.3-2.4-0.5-4.3c0-0.2,0-0.3,0-0.4c0-0.1,0-0.2,0-0.3s0-0.2,0.1-0.2
				c0.1-0.1,0.1-0.1,0.1-0.1s0.1-0.1,0.2-0.1c0.1,0,0.2,0,0.2-0.1c0,0,0.1,0,0.3,0c0.1,0,0.2,0,0.3,0l0,0l0,0c0.2,0,0.3,0,0.5,0
				c0.1,0,0.2,0.1,0.3,0.1s0.1,0.1,0.2,0.3c0.1,0.1,0.1,0.2,0.1,0.2s0,0.1,0,0.2c0.1,1,0.2,1.7,0.3,2.2c0,0.3,0.1,0.6,0.1,1.1
				c0.1,0.5,0.1,0.9,0.1,1.1L156.3,231.1z"/>
			<path d="M166.3,230.5l-0.5,0.1c-0.2,0-0.3,0.1-0.4,0.1s-0.2,0-0.3,0s-0.2,0-0.2-0.1c0,0-0.1-0.1-0.2-0.2
				c-0.1-0.1-0.1-0.2-0.2-0.3c0-0.1-0.1-0.3-0.2-0.5c-0.1-0.2-0.2-0.4-0.3-0.6c-0.1-0.1-0.3-0.2-0.8-0.2c-0.4,0-0.9,0.1-1.5,0.2
				c-0.6,0.1-1,0.3-1.4,0.5s-0.6,0.4-0.7,0.6c0,0.2-0.1,0.4-0.1,0.6c0,0.2,0,0.4-0.1,0.6c0,0.1-0.1,0.3-0.1,0.4
				c-0.1,0.1-0.1,0.3-0.3,0.3c-0.1,0.1-0.3,0.1-0.5,0.2c-0.1,0-0.3,0.1-0.5,0.1s-0.4,0-0.6-0.1c-0.1-0.1-0.2-0.2-0.3-0.4
				c0-0.1,0-0.2,0-0.3c0.1-0.6,0.3-1.6,0.5-3.2c0.2-1.6,0.4-2.8,0.6-3.7c0.1-0.4,0.1-0.9,0.2-1.3c0.1-0.5,0.1-0.8,0.1-1
				s0.1-0.5,0.1-0.7c0.1-0.2,0.1-0.4,0.2-0.5c0.1-0.1,0.2-0.2,0.4-0.3s0.4-0.2,0.7-0.2h0.2c0.5-0.1,0.9,0,1.1,0.2
				c0.2,0.2,0.7,1,1.5,2.3c1.2,2,2.4,3.9,3.5,5.6c0,0,0.1,0.1,0.2,0.3c0.1,0.2,0.2,0.3,0.2,0.4c0,0.1,0.1,0.2,0.1,0.3
				s0.1,0.2,0.1,0.3C167.2,230.1,166.9,230.3,166.3,230.5z M159.9,227.3L159.9,227.3c0,0.1,0.1,0.2,0.1,0.2c0.1,0,0.1,0.1,0.2,0.1
				l0.4-0.1c0.2,0,0.7-0.1,1.3-0.2c0.1,0,0.3-0.1,0.4-0.1c0.2,0,0.3-0.1,0.4-0.1c0.1,0,0.1,0,0.1-0.1s0-0.1,0-0.2
				c-0.6-1-1.3-2.1-2.1-3.4c0-0.1-0.1-0.1-0.1-0.1c-0.1,0-0.1,0-0.1,0.1c-0.1,0.4-0.2,1-0.4,1.9C160.1,226.1,160,226.8,159.9,227.3z
				"/>
		</g>
		<g>
			<path d="M142.5,242.7v0.3l-2.5-0.1l-0.5,14.2h-0.4l-1.6-1l0.2-5l-5.1-0.2c-0.1,0.6-0.2,1.1-0.5,1.5s-0.6,0.6-1.2,0.6
				c-0.4,0-0.8-0.2-1.1-0.5s-0.6-0.8-0.8-1.3c-0.2-0.6-0.3-1.1-0.3-1.7c0-0.2,0-0.3,0-0.4l1.9,0.1l0.1-1.8c-1.3-0.5-2.3-1.2-3.1-1.9
				c-0.8-0.7-1.1-1.5-1.1-2.5c0-0.8,0.3-1.3,0.8-1.7s1.1-0.6,1.9-0.6c1,0,1.8,0.3,2.5,0.9c0.7,0.6,1.1,1.5,1,2.8l-0.2,4.8l5.1,0.2
				l0.2-6.5l-3.6-0.1l-0.7-1.4V241l8.1,0.3L142.5,242.7z M128.3,243.6c0,0.6,0.2,1.1,0.7,1.6c0.5,0.4,1.1,0.8,2,1
				c0.1-0.3,0.1-0.7,0.2-1.2c0.1-0.5,0.1-0.8,0.1-1.1c0-0.5-0.1-0.9-0.4-1.3c-0.3-0.4-0.6-0.6-1-0.6s-0.8,0.1-1.1,0.3
				C128.5,242.7,128.3,243.1,128.3,243.6L128.3,243.6z"/>
			<path d="M149.5,242.5v0.3H147V257h-0.4l-1.7-0.9v-13.2h-2.5l-0.7-1.4v-0.4h7L149.5,242.5z"/>
			<path d="M159.1,242.7l-3.8,0.1c0.1,0.6,0.2,1.3,0.3,2s0.1,1.4,0.1,1.9c0,1-0.1,1.8-0.5,2.5s-0.9,1.4-1.5,2l4.9,5l-1.1,0.9
				l-5.2-5.7c-0.1-0.1-0.3-0.3-0.6-0.7c-0.3-0.3-0.5-0.6-0.6-0.9c-0.1-0.2-0.2-0.5-0.2-0.7c0-0.4,0.1-0.7,0.4-1
				c0.3-0.3,0.5-0.6,0.8-0.8l1.3,0.9c0.1-0.2,0.3-0.6,0.4-1.1c0.1-0.5,0.2-1,0.1-1.4c0-0.4,0-0.8-0.1-1.4c-0.1-0.6-0.1-1.1-0.2-1.5
				l-4.3,0.1l-0.7-1.3v-0.4l9.9-0.2l0.7,1.4L159.1,242.7z"/>
			<path d="M172.8,242l-2.5,0.1l0.7,14.2h-0.3l-1.7-0.9l-0.4-8.3l-3.7,0.2c-1,0.1-1.7,0.3-2.1,0.7c-0.4,0.4-0.6,1.1-0.6,1.9
				c0.1,1.6,1.3,3.4,3.7,5.5l-0.6,0.7c-1.4-1.1-2.5-2.2-3.4-3.4s-1.4-2.4-1.5-3.6c-0.1-1.1,0.2-2,0.8-2.6c0.6-0.7,1.6-1,3.1-1.1
				l4.3-0.2l-0.2-3.1l-9.7,0.5l-0.8-1.3v-0.4l14.2-0.7l0.8,1.3L172.8,242z"/>
		</g>
		<g>
			<path d="M52.9,114.5l4.2,1.4c-0.6-1.3-0.7-2.4-0.5-3.3c0.4-1.1,1-1.8,1.9-2.1c0.9-0.3,1.9-0.3,3.1,0.1c0.6,0.2,1.2,0.6,2,1.1
				c0.8,0.6,1.4,1.1,1.8,1.6l-1.9,0.9c-0.3-0.5-0.7-1.1-1.2-1.7s-1-0.9-1.5-1.1c-0.6-0.2-1.1-0.2-1.6,0.1c-0.5,0.2-0.8,0.6-1,1.1
				s-0.2,1.1,0,1.8c0.2,0.7,0.4,1.4,0.8,2.2l6.1,2l-0.1,0.3l-1.3,1.2l-3.7-1.3l0,0c0.3,0.8,0.5,1.4,0.6,2s0,1.2-0.2,1.9
				c-0.2,0.7-0.6,1.2-1,1.7c-0.5,0.5-1,0.7-1.7,0.9c-0.6,0.1-1.3,0.1-2.1-0.2c-0.6-0.2-1.1-0.5-1.5-0.9s-0.7-0.9-0.9-1.5
				s-0.2-1.2,0-1.8c0.3-0.9,0.8-1.6,1.4-2s1.4-0.8,2.3-1l-4.7-1.6l-2.6,8l-1.4,0.2l-0.3-0.1l5.5-17l1.4-0.2l0.3,0.1L52.9,114.5z
				 M58.9,120.5c-0.1-0.8-0.4-1.6-0.7-2.3h-0.1c-0.6,0.2-1.1,0.5-1.7,1c-0.5,0.5-0.9,1-1.1,1.6c-0.2,0.7-0.3,1.4-0.1,2.1
				s0.6,1.2,1.3,1.4c0.5,0.2,0.9,0.1,1.4-0.2c0.4-0.3,0.7-0.7,0.9-1.2C58.9,122.1,59,121.3,58.9,120.5z"/>
			<path d="M62.1,93.6l0.3,0.1l-1.1,2l11.4,6.1l-0.2,0.3L71,103l-4.4-2.3l-2.4,4.5c0.4,0.3,0.8,0.6,1,1s0.2,0.8,0,1.2
				c-0.2,0.3-0.4,0.6-0.8,0.7c-0.4,0.2-0.8,0.2-1.3,0.2c-0.6,0-1.2-0.2-1.7-0.4l-0.3-0.2l0.8-1.6l-4.9-2.6l-1.1,2.1h-1.4l-0.3-0.2
				l6.3-11.9L62.1,93.6z M65.4,100l-4.9-2.6l-2.4,4.5l4.9,2.6L65.4,100z"/>
			<path d="M55.6,89.6c0.5-0.3,1.2-0.6,1.8-0.7l0.4,0.9c-0.3,0.1-0.7,0.3-1.1,0.6c-0.4,0.3-0.7,0.6-1,1c-0.3,0.5-0.4,0.9-0.3,1.4
				c0.1,0.5,0.4,0.9,1,1.2c0.5,0.3,1.1,0.5,1.8,0.5s1.4-0.1,2.1-0.2l-0.7,1.2h-0.1C58.6,95.8,57.8,96,57,96s-1.5-0.2-2.1-0.5
				c-0.5-0.3-0.9-0.7-1.1-1.3c-0.2-0.5-0.3-1.1-0.2-1.7s0.3-1.1,0.6-1.6C54.6,90.4,55.1,90,55.6,89.6z"/>
			<path d="M71.6,80.4l0.3,0.2l-1.4,1.9l10.4,7.7l-0.2,0.3L79,91.2l-2.4-1.9h-0.1c0,0.6-0.1,1.2-0.3,1.8c-0.2,0.6-0.4,1.1-0.7,1.6
				c-0.3,0.4-0.7,0.8-1.1,1c-0.4,0.3-0.8,0.4-1.3,0.5s-0.9,0.1-1.4,0s-0.9-0.2-1.3-0.5c-0.6-0.4-1-1-1.2-1.8L68,93.5l-1.4-0.2
				l-0.3-0.2l4.3-5.8l1.4,0.2l0.3,0.2l-1.4,1.9c-0.3,0.6-0.4,1.2-0.2,1.8c0.2,0.6,0.5,1.1,1,1.5c0.4,0.3,0.8,0.4,1.3,0.3
				s0.9-0.3,1.2-0.6c0.3-0.5,0.5-1.2,0.6-2.2s0-1.8-0.3-2.6L69.4,84l-5.8,7.9l-1.4-0.2l-0.3-0.2l8.3-11.2L71.6,80.4z"/>
			<path d="M77.1,74.8l0.2,0.2l-1.6,1.7l9.4,8.8l-0.2,0.2l-1.7,0.5l-8.8-8.3l-1.6,1.7l-1.3-0.4L71.3,79l4.4-4.7L77.1,74.8z"/>
			<path d="M84.8,68.1l-2.6,2.3c0.5,0.3,0.9,0.7,1.4,1.2s0.9,0.9,1.2,1.2c0.6,0.7,1,1.4,1.1,2.1c0.2,0.7,0.2,1.5,0.1,2.3l6.3,0.5
				L92.2,79l-7-0.9c-0.1,0-0.4,0-0.8-0.1c-0.4,0-0.7-0.1-1-0.2c-0.2-0.1-0.4-0.2-0.6-0.4c-0.2-0.2-0.3-0.5-0.3-0.9s0-0.7,0.1-1
				l1.4-0.1c-0.1-0.3-0.2-0.6-0.4-1c-0.2-0.4-0.5-0.8-0.7-1.1c-0.2-0.2-0.5-0.6-0.9-0.9c-0.4-0.4-0.7-0.7-1-0.9l-2.9,2.6l-1.3-0.5
				l-0.2-0.2l6.7-6l1.3,0.5L84.8,68.1z"/>
			<path d="M90.6,63.3l0.2,0.3L89,64.9l7.8,10.3l-0.3,0.2l-1.7,0.2L87.5,66l-1.8,1.4l-1.3-0.6l-0.2-0.3l2.5-1.9
				c-1.6-0.9-3-1.6-4.3-2.1s-2.3-0.4-3,0.1c-0.4,0.3-0.7,0.8-0.7,1.3c0,0.5,0.1,1,0.5,1.4c0.3,0.4,0.7,0.7,1.1,0.9
				c0.5,0.3,0.9,0.4,1.3,0.5l0,0l-0.5,1c-0.7,0-1.5-0.2-2.2-0.4c-0.7-0.3-1.4-0.7-1.8-1.3c-0.3-0.4-0.5-0.9-0.5-1.4s0-1,0.3-1.6
				c0.2-0.5,0.6-1,1.1-1.4c0.8-0.6,1.7-0.8,2.8-0.7c1.1,0.2,2.1,0.5,3.1,1s2.2,1.2,3.7,2l1.7-1.3L90.6,63.3z"/>
			<path d="M114.6,50.4l0.1,0.3l-2.1,1l5.4,11.8l-0.3,0.1l-1.7-0.2l-1.9-4.2l-4.2,1.9c0.2,0.5,0.3,1,0.2,1.4s-0.3,0.7-0.7,0.9
				c-0.3,0.2-0.7,0.2-1.1,0c-0.4-0.1-0.8-0.4-1.2-0.7c-0.4-0.4-0.7-0.8-0.9-1.3c-0.1-0.1-0.1-0.2-0.1-0.3l1.6-0.7l-0.7-1.5
				c-1.3,0.1-2.3,0-3.3-0.3c-0.9-0.3-1.6-0.8-1.9-1.6c-0.3-0.6-0.3-1.2-0.1-1.8c0.2-0.5,0.7-0.9,1.3-1.2c0.8-0.4,1.6-0.5,2.5-0.3
				c0.8,0.2,1.5,0.8,2,1.9l1.8,4l4.2-1.9l-2.5-5.4l-3,1.4l-1.1-0.9l-0.1-0.3l6.7-3.1L114.6,50.4z M103.2,56.9c0.2,0.5,0.6,0.8,1.2,1
				c0.6,0.1,1.2,0.2,2,0.1c-0.1-0.3-0.2-0.6-0.3-1c-0.1-0.4-0.3-0.7-0.4-0.9c-0.2-0.4-0.5-0.7-0.8-0.9c-0.4-0.2-0.7-0.2-1.1,0
				s-0.6,0.4-0.7,0.7C103,56.1,103.1,56.5,103.2,56.9L103.2,56.9z"/>
			<path d="M117.1,43.2c-0.4,0.6-0.5,1.3-0.3,2.1c0.2,0.5,0.4,1,0.8,1.5s0.7,0.9,1,1.1l2.1-0.7l1,1l0.1,0.3l-2.2,0.7l4,12.3
				l-0.3,0.1l-1.7-0.3l-3.7-11.5l-2.2,0.7l-1-1l-0.1-0.3l2.9-1c-1.6-1.2-2.6-2.3-2.9-3.3c-0.2-0.6-0.2-1.2,0-1.8s0.6-1.1,1.1-1.6
				c0.6-0.5,1.2-0.8,2-1.1c1.4-0.4,3-0.4,4.9,0.1s4,1.3,6.4,2.4l-0.3,0.9c-2.2-0.9-4.2-1.6-5.7-2c-1.6-0.4-2.9-0.4-4,0
				C118.2,42.1,117.5,42.6,117.1,43.2z"/>
			<path d="M136.2,45l0.1,0.3l-2.3,0.5l2.6,12.7l-0.3,0.1l-1.7-0.5l-0.7-3.6h-0.1c-0.6,0.7-1.2,1.3-1.8,1.7s-1.1,0.7-1.7,0.8
				c-0.7,0.1-1.4,0.1-2.1,0c-0.7-0.2-1.3-0.5-1.8-1s-0.9-1.1-1-1.9c-0.2-0.9-0.2-1.7,0.1-2.4c0.2-0.7,0.6-1.3,1.1-1.8s1-0.8,1.6-0.9
				c0.8-0.2,1.7-0.1,2.6,0.3c0.9,0.4,1.7,0.8,2.4,1.4l0,0l-0.9-4.5l-9.5,2l-0.9-1.1l-0.1-0.3l13.5-2.8L136.2,45z M129.1,55.6
				c0.8-0.2,1.5-0.6,2.3-1.3s1.4-1.5,1.9-2.4l0,0c-0.5-0.5-1.2-0.9-1.9-1.1c-0.7-0.3-1.4-0.3-1.9-0.2c-0.7,0.1-1.3,0.4-1.8,0.8
				c-0.5,0.4-0.9,0.9-1.1,1.4s-0.3,1-0.2,1.4c0.1,0.6,0.4,1,1,1.2C127.9,55.7,128.5,55.7,129.1,55.6L129.1,55.6z"/>
			<path d="M147.8,52c-0.9,0.7-1.7,1.3-2.2,1.6c-0.6,0.3-1.1,0.5-1.7,0.6c-0.8,0.1-1.7-0.4-3-1.4c-0.4-0.4-0.8-0.7-1-1
				s-0.4-0.6-0.4-1l-0.5-5.6l-1.8,0.2l-0.8-1.2v-0.3l8.1-0.7l0.8,1.2v0.3l-4.5,0.4l0,0l6,5.3c0.2-0.2,0.3-0.3,0.4-0.5L147.8,52z
				 M144.9,52c0.5-0.3,1-0.7,1.5-1.1l-5.4-4.8l0.4,4.8c0.1,0.7,0.3,1.1,0.7,1.3s0.8,0.3,1.3,0.3C143.9,52.4,144.4,52.2,144.9,52z"/>
			<path d="M158.9,44.7h-2.3l-0.2,13h-0.3l-1.5-0.9l0.1-3.3h-0.1c-1.1,0.8-2.2,1.1-3.2,1.1c-1.1,0-2.1-0.5-2.9-1.3
				c-0.8-0.9-1.5-2-1.9-3.4c0.8-0.2,1.5-0.6,2.2-1.1s0.9-1,0.9-1.7c0-0.4-0.1-0.8-0.3-1.2s-0.6-0.8-1.1-1.3h-2.7l-0.6-1.3V43
				l13.3,0.2l0.6,1.3V44.7z M152.9,52.3c0.8-0.4,1.4-0.8,1.8-1.3l0.1-6.3l-5-0.1l0,0c1.2,1.3,1.8,2.3,1.8,3s-0.4,1.4-1,2
				c-0.7,0.6-1.4,1-2.1,1.3c0,0.6,0.2,1,0.6,1.4c0.4,0.4,0.9,0.5,1.5,0.6C151.4,52.8,152.1,52.6,152.9,52.3z"/>
			<path d="M178.8,41.4c1,1.3,1.7,2.9,2.4,4.6l-0.8,0.3c-0.7-1.6-1.4-2.8-2.1-3.8c-0.7-1-1.5-1.5-2.3-1.7c-0.6-0.1-1.1,0-1.6,0.3
				c-0.4,0.3-0.7,0.8-0.9,1.5c-0.1,0.5-0.1,1.1-0.1,1.7c0.1,0.6,0.2,1.1,0.3,1.4l2.1,0.5l0.4,1.4l-0.1,0.3l-2.2-0.5L171.1,60
				l-0.3-0.1l-1.3-1.2l2.6-11.8l-2.2-0.5l-0.4-1.4l0.1-0.3l3,0.7c-0.3-0.8-0.6-1.6-0.8-2.3s-0.2-1.4,0-2c0.2-0.8,0.6-1.4,1.4-1.8
				c0.7-0.4,1.5-0.5,2.4-0.3C176.8,39.2,177.8,40,178.8,41.4z"/>
			<path d="M189,51.6l-0.1,0.3l-2.2-0.7l-4.1,12.3l-0.3-0.1l-1.2-1.3l2-6.1l-4.3-1.3l-0.4,2.1c-0.3,0-0.5-0.1-0.9-0.2
				c-0.3-0.1-0.7-0.3-1-0.6s-0.6-0.7-0.7-1.1c-0.2-0.4-0.2-0.9,0-1.4c0.3-1,1.2-1.3,2.6-0.8c1.2,0.4,2.9,1,5.1,1.9l1.3-4l-7.9-2.7
				l-0.2-1.4l0.1-0.3l11.8,4L189,51.6z"/>
			<path d="M199.3,49.2c0.7,1.5,1.1,3.2,1.4,5l-0.9,0.1c-0.3-1.7-0.8-3.1-1.3-4.1c-0.5-1.1-1.1-1.8-1.9-2.1c-0.5-0.2-1.1-0.3-1.6,0
				c-0.5,0.2-0.9,0.6-1.2,1.2c-0.2,0.5-0.4,1-0.4,1.7c-0.1,0.6-0.1,1.1,0,1.5l2,0.9l0.1,1.4l-0.1,0.3l-2.1-0.9L188,66l-0.3-0.1
				l-1-1.4l4.9-11l-2.1-0.9l-0.1-1.4l0.1-0.3l2.8,1.3c-0.2-0.8-0.3-1.6-0.3-2.4c0-0.7,0.1-1.4,0.4-2c0.3-0.8,0.9-1.3,1.7-1.5
				s1.6-0.2,2.4,0.2C197.8,46.7,198.7,47.7,199.3,49.2z"/>
			<path d="M208.7,62.5l-2-1.2l-6.6,11.2l-0.3-0.2l-0.9-1.5l1.9-3.2v-0.1c-1.7,0.2-3,0.1-3.8-0.4c-1-0.6-1.6-1.3-2-2.1
				c-0.2-0.6-0.3-1.1-0.4-1.7s0-1,0.2-1.3c0.2-0.4,0.6-0.7,1-1s0.9-0.5,1.5-0.6c-0.4-0.8-0.7-1.6-0.7-2.5c-0.1-0.8,0.1-1.6,0.5-2.3
				c0.4-0.6,0.8-1,1.4-1c0.6-0.1,1.2,0,1.7,0.4c0.3,0.2,0.6,0.4,0.8,0.7c0.3,0.3,0.5,0.6,0.6,0.9c0.2,0.4,0.3,0.8,0.3,1.1
				s0,0.6-0.2,1c-0.1,0.2-0.3,0.3-0.5,0.4c-0.2,0.1-0.5,0-0.9-0.2c-0.2-0.1-0.3-0.2-0.4-0.4l0.8-1.3c-0.1-0.3-0.3-0.6-0.7-0.8
				c-0.3-0.2-0.7-0.3-1-0.2s-0.6,0.3-0.8,0.7c-0.3,0.4-0.3,1-0.2,1.6s0.3,1.2,0.7,1.8c0.3,0,0.7,0.2,1.1,0.4
				c0.8,0.5,1.3,0.9,1.5,1.2l-0.1,0.9l-0.5,0.4c-0.3-0.3-0.7-0.6-1.2-0.9c-0.4-0.3-0.9-0.4-1.3-0.3c-0.5,0-0.9,0.2-1.3,0.4
				c-0.4,0.3-0.7,0.5-0.9,0.9s-0.2,0.7,0,1.1s0.5,0.7,0.9,0.9c0.4,0.2,0.9,0.4,1.6,0.4c0.7,0.1,1.4,0,2.1-0.1
				c0.7-0.1,1.3-0.3,1.8-0.5l2.8-4.7l-2-1.2l0.1-1.4l0.2-0.3l5.6,3.3l-0.1,1.4L208.7,62.5z"/>
			<path d="M228.6,79.8l-0.2,0.2l-1.6-1.6l-9.1,9.2l-0.2-0.2l-0.5-1.7l3.3-3.3l0,0c-0.6-0.3-1.2-0.7-1.7-1.2c-0.4-0.4-0.7-1-0.9-1.6
				s-0.3-1.2-0.4-1.8l0,0c-0.5,0.1-1.1,0.2-1.8,0.1l-0.2,6.4l-1.3-0.2l0.5-7.1c0-0.1,0-0.4,0.1-0.8c0-0.4,0.1-0.7,0.2-1
				c0.1-0.2,0.2-0.4,0.4-0.6s0.5-0.4,0.9-0.4s0.7,0,1,0.1l0.2,1.4c0.2-0.1,0.6-0.2,1-0.5c0.4-0.2,0.7-0.5,1-0.8
				c0.2-0.2,0.5-0.6,0.9-1c0.3-0.4,0.6-0.7,0.8-1.1l-2.8-2.8l0.4-1.3l0.2-0.2L229,78.4L228.6,79.8z M219.3,79.5
				c0.8,0.8,1.5,1.2,2.3,1.4l3.8-3.8l-3.6-3.6c-0.7,1.1-1.5,2-2.3,2.8c-0.4,0.4-0.9,0.8-1.4,1c0.1,0.4,0.2,0.8,0.5,1.2
				C218.8,78.9,219.1,79.2,219.3,79.5L219.3,79.5z"/>
			<path d="M236.9,79.5c0,0.3-0.2,0.6-0.5,0.8c-0.3,0.3-0.7,0.4-1.1,0.3c-0.4-0.1-0.7-0.3-1-0.6c-0.2-0.3-0.3-0.6-0.3-0.9
				s0.2-0.6,0.5-0.9s0.7-0.4,1.1-0.3c0.4,0.1,0.8,0.2,1,0.5C236.9,78.9,237,79.2,236.9,79.5z"/>
			<path d="M239.6,95.3l-0.3,0.2l-1.3-1.9l-10.7,7.3l-0.2-0.3l-0.1-1.8l10-6.8l-2.5-3.7c-1.9,1.5-3.5,2.7-4.9,3.7
				c-0.5,0.3-0.9,0.5-1.5,0.6c-0.5,0.1-1-0.2-1.3-0.7c-0.3-0.4-0.4-0.9-0.4-1.3c0-0.5,0.2-0.9,0.4-1.2s0.5-0.7,0.8-0.8
				c0.3-0.2,0.5-0.3,0.8-0.4l0.9,1.9l4.4-2.7l-1.8-2.7l0.7-1.2l0.3-0.2l7.4,10.9L239.6,95.3z"/>
			<path d="M245.6,108.1l-1.9-3.9c-0.4,0.7-0.8,1.2-1.2,1.4c-0.4,0.2-1.1,0.3-1.8,0.3c-0.4,2.2-1.2,3.6-2.6,4.3
				c-0.8,0.4-1.5,0.5-2.3,0.5c-0.8-0.1-1.5-0.4-2.2-0.9s-1.3-1.3-1.8-2.3c-0.4-0.8-0.6-1.7-0.5-2.6s0.4-1.7,0.9-2.4
				c0.5-0.7,1.1-1.3,1.9-1.7c1.3-0.7,2.5-0.7,3.6,0c1.1,0.6,2.1,1.7,2.9,3.3c0.5,0,0.9-0.1,1.4-0.3c0.3-0.2,0.6-0.5,1-1.1l-3-6.1
				l0.8-1.1l0.3-0.1l5.6,11.5l-0.8,1.2L245.6,108.1z M239.2,107.3c0.2-0.5,0.3-0.9,0.3-1.4c-0.8-1.4-1.7-2.5-2.7-3.3
				s-1.9-0.9-2.9-0.5c-0.6,0.3-1,0.7-1.2,1.1s-0.3,1-0.3,1.5s0.1,1,0.3,1.4c0.7,1.4,1.5,2.2,2.5,2.5s1.9,0.2,2.9-0.2
				C238.6,108.1,238.9,107.7,239.2,107.3z"/>
			<path d="M250.3,120.9L250,121l-0.7-2.2L237,123l-0.1-0.3l0.3-1.7l6.1-2l-1.6-4.2l-1.9,0.9c-0.2-0.2-0.3-0.5-0.4-0.8
				c-0.1-0.3-0.1-0.7-0.1-1.2c0-0.4,0.2-0.9,0.4-1.2c0.3-0.4,0.6-0.7,1.1-0.8c1-0.3,1.8,0.2,2.3,1.6c0.4,1.2,0.9,3,1.5,5.2l4-1.3
				l-2.7-7.9l1-1l0.3-0.1l4,11.9L250.3,120.9z"/>
		</g>
	</g>
	<rect x="-0.1" y="-0.1" class="st6" width="300.2" height="300.2"/>
</g>
</svg>
