<svg id="Layer_1" data-name="Layer 1" xmlns="http://www.w3.org/2000/svg" viewBox="0 0 454.55 300"><defs><style>.cls-1{fill:none;}.cls-2{fill:#595959;}.cls-3{fill:#e2e2e2;}.cls-4{fill:#fff;}</style></defs><title>NHAI</title><g id="Group_21628" data-name="Group 21628"><path id="Path_26329" data-name="Path 26329" class="cls-1" d="M114.54,176.07,113,174.52,112,173l-1-1.55-1-1.55,1.55-1.55,1.55-.52h0l-1.55.52-1.55,1.55,1,1.55,1,1.55,1,1.55,1.55,1.55a33.18,33.18,0,0,0,4.13,4.65,4.42,4.42,0,0,0,2.58,1.55h0a7,7,0,0,1-2.06-1.55A19.74,19.74,0,0,1,114.54,176.07Z"/><path id="Path_26331" data-name="Path 26331" class="cls-1" d="M122.28,166.78a4.72,4.72,0,0,1-1.55,3.61,10.75,10.75,0,0,1-3.1,2.06l-1.55.52h0l-1.55.52h2.58l1.55-.52c1-.52,2.58-1,3.1-2.06a5.81,5.81,0,0,0,.51-4.13l.52-5.17h-.52Z"/><path id="Path_26332" data-name="Path 26332" class="cls-1" d="M117.64,170.39c.51-.52,1-1,1-1.55v-6.71h0v6.71c-.52.52-1,1-1,1.55l-1,.52h.52Z"/><path id="Path_26333" data-name="Path 26333" class="cls-1" d="M299.24,120.82h0a3.48,3.48,0,0,0-4.86-.76l-.3.24h0a4,4,0,0,0-1,4.13,2.65,2.65,0,0,1,1.33-3.52,2,2,0,0,1,.22-.09h0a2.66,2.66,0,0,1,3.62-1,2.63,2.63,0,0,1,1,1A186.65,186.65,0,0,1,313.17,142a4.37,4.37,0,0,1,0,3.61,3.88,3.88,0,0,0,.52-4.13A134.91,134.91,0,0,0,299.24,120.82Z"/><path id="Path_26334" data-name="Path 26334" class="cls-1" d="M77.39,177.1a4.69,4.69,0,0,1-1.55,3.62,10.71,10.71,0,0,1-3.09,2.06l-1.55.52-1.55.51h2.58l3.09,3.62,1,1.55L78.42,191l.51.52.52-.52-1-.51-2.06-2.07-1-1-3.09-3.62,1.55-.51c1-.52,2.58-1,3.09-2.07a5.8,5.8,0,0,0,.52-4.13v-5.16h0Z"/><path id="Path_26336" data-name="Path 26336" class="cls-1" d="M318.33,242.68a3.14,3.14,0,0,1-2.41-3.73,3.43,3.43,0,0,1,.35-.92A177.6,177.6,0,0,0,322,214.28c0-.52,0-1,.51-1a1.91,1.91,0,0,0-.51,1.55A170.82,170.82,0,0,1,316.79,238c-1.55,2.58-.52,4.65,1.54,4.65,0,.52.52.52,1,.52a3.68,3.68,0,0,0,3.09-1.55,3.12,3.12,0,0,1-3.09,1.55C319.37,242.68,318.85,242.68,318.33,242.68Z"/><path id="Path_26337" data-name="Path 26337" class="cls-1" d="M73.78,178.14v-5.69L61.91,175v-1.55l14.45-3.09-6.19,1.55c-3.1.51-5.67,1.55-8.77,2.06v1.55L73.26,173l.52,5.17c0,1-.52,1-.52,1.55h0A1.91,1.91,0,0,0,73.78,178.14Z"/><path id="Path_26338" data-name="Path 26338" class="cls-1" d="M49.53,178.14l.52-1.55h-.52Z"/><path id="Path_26339" data-name="Path 26339" class="cls-1" d="M164.58,164.71h0V173l4.13-1v-.52l-4.13,1Z"/><path id="Path_26340" data-name="Path 26340" class="cls-1" d="M179,104.82l-8.25,9.29c.51.51.51,1,1,1.55h0A53.94,53.94,0,0,1,179,130.12v1.55h0l15.48-3.1c-.51-.52-.51-1-1-1.55A102.27,102.27,0,0,0,179,104.82Z"/><path id="Path_26341" data-name="Path 26341" class="cls-1" d="M171.29,150.77v-.52l-2.58.52v.52l2.58-.52,4.13-1v20.13h0V149.74Z"/><path id="Path_26342" data-name="Path 26342" class="cls-1" d="M29.93,193.11v10.33h.51V193.11Z"/><path id="Path_26345" data-name="Path 26345" class="cls-1" d="M157.36,168.32,152.2,174l1.55,1h0l-1.55-1Z"/><path id="Path_26346" data-name="Path 26346" class="cls-1" d="M263.64,85.2h0a4,4,0,0,0-5.16.51,4,4,0,0,1,5.16-.51,191.64,191.64,0,0,1,18.58,16.52h0a3.92,3.92,0,0,1,0,5.16h0a3.45,3.45,0,0,0,.3-4.86q-.15-.17-.3-.3A191.64,191.64,0,0,0,263.64,85.2Z"/><path id="Path_26347" data-name="Path 26347" class="cls-1" d="M302.86,275.72a3.88,3.88,0,0,1-1-5.16c1.55-3.1,3.61-6.71,5.16-9.81,0-.52.52-.52,1-1l-1,1c-1.55,3.1-3.09,6.19-5.16,9.81v.51a2.77,2.77,0,0,0-.15,3.9,2.66,2.66,0,0,0,1.19.75c.51.52,1,.52,2.06.52h0C303.88,276.24,303.37,276.24,302.86,275.72Z"/><path id="Path_26349" data-name="Path 26349" class="cls-1" d="M150.65,155.42h0l3.1-1h0Z"/><path id="Path_26350" data-name="Path 26350" class="cls-1" d="M137.24,156.45h0L124.86,159l-18.06,4.13v2.07h0v-1.55l17.54-4.13v1.55h.52v-1Z"/><path id="Path_26351" data-name="Path 26351" class="cls-1" d="M163,162.64l-1,1c-.51.52-.51.52-1,.52h-1l-.52-.52a1.9,1.9,0,0,1-1.1-2.43,1,1,0,0,1,.07-.15h0a4,4,0,0,0,1,2.58l.52.52h.51c.52,0,.52-.52,1-.52l1.55-1,.51-.51,1-1h0l-1,1Z"/><path id="Path_26352" data-name="Path 26352" class="cls-1" d="M202.76,121.85a123.42,123.42,0,0,0-6.7-10.84,132.18,132.18,0,0,1,11.87,22.2A71.76,71.76,0,0,0,202.76,121.85Z"/><path id="Path_26353" data-name="Path 26353" class="cls-1" d="M191.93,105.33a22.45,22.45,0,0,1,2.58,3.62A9.33,9.33,0,0,0,191.93,105.33Z"/><path id="Path_26354" data-name="Path 26354" class="cls-1" d="M95.45,33.56h0c5.16,2.58,10.83,5.17,16,7.75C106.28,38.73,100.61,36.14,95.45,33.56Z"/><path id="Path_26355" data-name="Path 26355" class="cls-1" d="M209,135.28c1,2.06,1.55,4.65,2.58,6.71C210.5,139.41,210,137.34,209,135.28Z"/><path id="Path_26356" data-name="Path 26356" class="cls-1" d="M265.19,211.7c-9.28,21.68-24.76,41.31-45.4,59.38a162.15,162.15,0,0,0,45.4-59.38A116.78,116.78,0,0,0,275,174.52c0-2.58.51-4.65.51-7.23a34.33,34.33,0,0,1-.51,7.23A104.72,104.72,0,0,1,265.19,211.7Z"/><path id="Path_26357" data-name="Path 26357" class="cls-1" d="M19.61,185.36h-.52l-.52,1v3.1L17,190l-1.54.52v.52l2.06-.52,1.55-.52v-3.1l.51-1.55h.52c0,.52,0,0-.52,0Z"/><path id="Path_26358" data-name="Path 26358" class="cls-1" d="M399.33,225.12a111.1,111.1,0,0,0-6.7-31.5A79.87,79.87,0,0,1,388,231.83a150.35,150.35,0,0,1-24.24,42.34A230.29,230.29,0,0,1,339,299.47h28.38a5.59,5.59,0,0,1,1.55-3.62C390.05,273.66,400.37,249.9,399.33,225.12Z"/><path id="Path_26359" data-name="Path 26359" class="cls-1" d="M380.76,153.35A73.83,73.83,0,0,1,388,163.68a115,115,0,0,1,21.67,61.44c1,26.34-9.8,51.64-30.95,74.87H454V126.5Z"/><path id="Path_26360" data-name="Path 26360" class="cls-1" d="M214.12,150.25c.51,1,.51,2.58,1,3.62A7.47,7.47,0,0,1,214.12,150.25Z"/><path id="Path_26361" data-name="Path 26361" class="cls-1" d="M276,65.06a311.24,311.24,0,0,1,53.14,36.14h0L454,75.38V0H75.84a662.83,662.83,0,0,1,99.58,23.24A504.38,504.38,0,0,1,276,65.06Z"/><path id="Path_26362" data-name="Path 26362" class="cls-1" d="M355.48,268a178.54,178.54,0,0,1-32,30.46,178.54,178.54,0,0,0,32-30.46,127.47,127.47,0,0,0,22.7-38.73,79.49,79.49,0,0,0,4.65-26.85,81.82,81.82,0,0,1-4.65,26.85A155.33,155.33,0,0,1,355.48,268Z"/><path id="Path_26363" data-name="Path 26363" class="cls-1" d="M361.16,132.18l3.09,3.1h0L454,105.85V98.62l-98.55,26.85C357.55,128.05,359.61,130.12,361.16,132.18Z"/><path id="Path_26364" data-name="Path 26364" class="cls-1" d="M212.05,144.06c.52,1,.52,2.06,1,3.09C212.57,146.12,212.57,145.09,212.05,144.06Z"/><path id="Path_26365" data-name="Path 26365" class="cls-1" d="M89.26,53.7h0l.51.51h0C97,57.83,104.22,62.48,112,66.61c4.64,2.58,9.28,5.68,13.41,8.26h0l7.23-10.33A321.62,321.62,0,0,0,95.45,44.41Z"/><path id="Path_26366" data-name="Path 26366" class="cls-1" d="M19.61,197.76h0l-1.55-1.55Z"/><path id="Path_26367" data-name="Path 26367" class="cls-1" d="M140.85,70.74h0l-7.22,10.32a203.61,203.61,0,0,1,30.44,25.3h0l7.74-8.78A154.28,154.28,0,0,0,140.85,70.74Z"/><path id="Path_26368" data-name="Path 26368" class="cls-1" d="M321.94,191c0,2.07,1.55,3.1,3.61,3.1h.52a4.5,4.5,0,0,1-4.13-3.1,88.55,88.55,0,0,0-4.64-23.23,3.87,3.87,0,0,1,2.06-4.65,4.15,4.15,0,0,1,4.64,2.06,3.76,3.76,0,0,0-7.22,2.07A121.24,121.24,0,0,1,321.94,191Z"/><path id="Path_26369" data-name="Path 26369" class="cls-1" d="M26.31,183.81h0l3.62-.51h0Z"/><path id="Path_26370" data-name="Path 26370" class="cls-1" d="M216.69,178.65a11.31,11.31,0,0,1-.51,4.13C216.18,181.75,216.69,180.2,216.69,178.65Z"/><path id="Path_26371" data-name="Path 26371" class="cls-1" d="M216.69,177.62a74.17,74.17,0,0,0-1.55-21.17A71.71,71.71,0,0,1,216.69,177.62Z"/><path id="Path_26372" data-name="Path 26372" class="cls-1" d="M131.05,253a251.93,251.93,0,0,0,46.43-25.3L0,292.76v4.13c1.55-.52,3.61-1,5.16-1.55A784.36,784.36,0,0,0,131.05,253Z"/><path id="Path_26373" data-name="Path 26373" class="cls-1" d="M215.66,186.39a3.1,3.1,0,0,1-.52,2.07A3.94,3.94,0,0,0,215.66,186.39Z"/><path id="Path_26374" data-name="Path 26374" class="cls-1" d="M206.89,180.72c0-1,.52-2.58.52-3.62v-6.19L0,233.38v58.87l2.06-49.06Z"/><path id="Path_26375" data-name="Path 26375" class="cls-1" d="M169.74,133.73c0-.52,0-.52-.51-1,0-1-.52-1.55-1-2.58a48.7,48.7,0,0,0-8.77-13.94,128,128,0,0,0-11.87-11.88,266.56,266.56,0,0,0-24.24-18.07c-5.68-3.62-11.35-7.75-17-10.85A562.34,562.34,0,0,0,49.53,45.44l5.16-8.78c4.13,2.06,12.9,6.19,23.73,11.87l1,.52,5.68-8.26A249.75,249.75,0,0,0,58.81,29.43s4.65-7.75,4.65-8.26h0L65,18.58h0l4.13-6.71h0l1-1.55h0l3.09-5.16h0L75.84.52H0V233.9l2.06-65.58Z"/><path id="Path_26376" data-name="Path 26376" class="cls-1" d="M24.76,192.08l5.17-1h0l-5.17,1,.52-5.68a4,4,0,0,0-1-2.58h-.52c1,.51,1,1.55,1,2.58Z"/><path id="Path_26378" data-name="Path 26378" class="cls-1" d="M195,270.56a3.73,3.73,0,0,1-5.16,0h0a3.19,3.19,0,0,1-.51-3.62,3.66,3.66,0,0,0,1.06,5.08,3.58,3.58,0,0,0,2,.6,5.1,5.1,0,0,0,2.58-2.06,58.83,58.83,0,0,0,8.26-7.75h0a4,4,0,0,0,1-2.58,2.73,2.73,0,0,1-1,2.07C200.7,265.4,197.6,268,195,270.56Z"/><path id="Path_26379" data-name="Path 26379" class="cls-1" d="M221.34,227.19l.52-.52Z"/><path id="Path_26380" data-name="Path 26380" class="cls-1" d="M222.37,226.67h.51C222.88,226.15,222.88,226.15,222.37,226.67Z"/><path id="Path_26381" data-name="Path 26381" class="cls-1" d="M211,108.43,198.65,94.49a3.46,3.46,0,0,1-.3-4.87q.15-.16.3-.3c.52-.52.52-.52,1-.52a1.12,1.12,0,0,0-1,1,3.45,3.45,0,0,0-.3,4.86q.15.17.3.3A105,105,0,0,1,211,108.43h0a4,4,0,0,0,4.65,1A4.94,4.94,0,0,1,211,108.43Z"/><path id="Path_26383" data-name="Path 26383" class="cls-1" d="M222.88,119.27a4,4,0,0,1,5.16.52,111.85,111.85,0,0,1,8.77,17.55h0A111.85,111.85,0,0,0,228,119.79h0a3.36,3.36,0,0,0-4.64-1h0a4.72,4.72,0,0,0-1.55,3.61C221.34,121.34,221.86,120.31,222.88,119.27Z"/><path id="Path_26384" data-name="Path 26384" class="cls-1" d="M180.58,68.67h0a1.59,1.59,0,0,0-1-.51c.51.51.51.51,1,.51a108.58,108.58,0,0,1,8.77,7.23h0a3.45,3.45,0,0,1,.3,4.87q-.14.15-.3.3c-.52,1-1.55,1-2.58,1h-1c.52,0,1,.52,1.55.52a3.93,3.93,0,0,0,2.58-1h0a4.69,4.69,0,0,0,0-5.16Z"/><path id="Path_26385" data-name="Path 26385" class="cls-1" d="M232.69,216.34h-1.55a3.2,3.2,0,0,1-2.06-3.09,3.47,3.47,0,0,0,2.06,3.09h1.55a3.46,3.46,0,0,0,3.09-2.06,130.76,130.76,0,0,0,6.2-18.59h0a111.42,111.42,0,0,1-6.2,18.59A3.46,3.46,0,0,1,232.69,216.34Z"/><path id="Path_26386" data-name="Path 26386" class="cls-1" d="M235.78,154.9c.52-.52,1.55-1.55,2.07-1.55a3.55,3.55,0,0,1,4.13,2.58,113.47,113.47,0,0,1,1.54,18.59v1.55c0,.52,0,1-.51,1,0-.51.51-1,.51-1.55V174A113.56,113.56,0,0,0,242,155.41h0a3.21,3.21,0,0,0-3.62-2.7,4.21,4.21,0,0,0-.51.12C237.33,153.35,236.3,153.88,235.78,154.9Z"/><path id="Path_26387" data-name="Path 26387" class="cls-1" d="M221.34,240.09a44.13,44.13,0,0,0,5.16-8.26l.52-.52v-.51c0,.52-.52.52-.52,1A71.79,71.79,0,0,1,221.34,240.09Z"/><path id="Path_26388" data-name="Path 26388" class="cls-1" d="M272.93,215.31a137.18,137.18,0,0,0,10.32-39.76c2.06-21.17-5.68-42.85-22.7-63.51-3.62-4.13-7.74-8.26-11.87-12.39,4.13,4.13,7.74,8.26,11.87,12.39,17,20.66,24.76,42.34,22.7,63.51a122.66,122.66,0,0,1-10.32,39.76c-13.93,32-40.24,60.41-77.91,84.16h0C232.69,275.72,259,247.32,272.93,215.31Z"/><path id="Path_26389" data-name="Path 26389" class="cls-1" d="M225.47,226.15h0C226,226.67,225.47,226.67,225.47,226.15Z"/><path id="Path_26390" data-name="Path 26390" class="cls-1" d="M210,243.71h0a3.25,3.25,0,0,0,.43,4.58l.08.07A3.85,3.85,0,0,1,210,243.71Z"/><path id="Path_26391" data-name="Path 26391" class="cls-1" d="M222.37,57.31l-.51-.51h-1c.52,0,1,.51,1.55.51,7.22,4.13,14.45,8.78,21.15,13.43a3.45,3.45,0,0,1,.81,4.81c-.09.12-.19.24-.29.35A3.09,3.09,0,0,1,241,77.45h0A4.48,4.48,0,0,0,244,75.9a4,4,0,0,0-.52-5.16C236.82,66.09,229.59,61.44,222.37,57.31Z"/><path id="Path_26393" data-name="Path 26393" class="cls-1" d="M198.64,52.15a1.89,1.89,0,0,1-1.55-.52c-3.61-1.55-7.23-3.1-10.32-4.65h0a3.54,3.54,0,0,1-1.55-4.65h0a3.42,3.42,0,0,0,1.43,4.6l.12,0c3.61,1.55,7.22,3.1,10.32,4.65,0,.52.51,1,1.55.52a3.68,3.68,0,0,0,3.09-1.55h0A4.48,4.48,0,0,1,198.64,52.15Z"/><path id="Path_26394" data-name="Path 26394" class="cls-1" d="M227,228.22v.52C227.53,228.74,227.53,228.22,227,228.22Z"/><path id="Path_26396" data-name="Path 26396" class="cls-1" d="M226.5,227.19l.51.51a.49.49,0,0,0-.49-.51Z"/><path id="Path_26398" data-name="Path 26398" class="cls-1" d="M118.15,212.73l-11.87,33.56h0l11.87-33,4.64-1.55L134.66,236h0l-11.87-24.27Z"/><path id="Path_26399" data-name="Path 26399" class="cls-1" d="M42.31,244.22l10.31,9.3Z"/><path id="Path_26400" data-name="Path 26400" class="cls-1" d="M120.21,216.34l5.17,11.36-9.81,3.62,10.32-3.62-5.16-11.87Z"/><path id="Path_26401" data-name="Path 26401" class="cls-1" d="M63,262.81l5.16-2.06Z"/><path id="Path_26402" data-name="Path 26402" class="cls-1" d="M63,230.29l4.64-1.55h0l-5.16,1.55v24.78l.52.52Z"/><path id="Path_26403" data-name="Path 26403" class="cls-1" d="M42.31,237v-.52l-5.16,2.07v33.56h.52V238.55Z"/><path id="Path_26405" data-name="Path 26405" class="cls-1" d="M138.27,206.53l3.61-1h0Z"/><path id="Path_26406" data-name="Path 26406" class="cls-2" d="M265.19,211.7a116.76,116.76,0,0,0,9.8-37.18c0-2.58.52-4.65.52-7.23-.52-16.52-7.22-33.56-21.15-50.08a218.07,218.07,0,0,0-50.05-42.34A398.78,398.78,0,0,0,66,18.59h0l-1.55,2.58h0c10.32,4.13,20.64,8.26,31,12.91h0c5.16,2.58,10.83,5.16,16,7.74,4.65,2.07,9.29,4.65,13.42,6.71a188.12,188.12,0,0,1,67.07,56.8,22.45,22.45,0,0,1,2.58,3.62l1,1c.52.52.52,1,1,1.55,2.07,3.62,4.65,7.23,6.71,10.84,2.06,4.14,3.61,7.75,5.16,11.36,0,.52.52,1,.52,1.55,1,2.07,1.55,4.65,2.58,6.72,0,.51.51,1,.51,1.55v.51c.52,1,.52,2.07,1,3.1s.51,2.06,1,3.1.52,2.58,1,3.61a3.16,3.16,0,0,0,.52,2.07,74.87,74.87,0,0,1,1.55,21.17v1.55a11.37,11.37,0,0,1-.52,4.13c0,1-.52,2.06-.52,3.09-.34,1.38-.68,2.76-1,4.14a78.24,78.24,0,0,1-22.7,38.72C177,243.2,157.37,252.49,135.7,262.82A824.69,824.69,0,0,1,32,299.47H179a289,289,0,0,0,41.28-28.4A166.23,166.23,0,0,0,265.19,211.7ZM189.86,81.07h0a2.84,2.84,0,0,1-2.57,1.55,1.89,1.89,0,0,1-1.55-.52,1.85,1.85,0,0,1-1-.52,56.11,56.11,0,0,0-8.77-6.71h0a3.45,3.45,0,0,1-.81-4.81c.09-.12.19-.24.29-.35h0a3.43,3.43,0,0,1,3.62-1h.51c.52,0,.52,0,1,.52h0c3.1,2.58,6.2,4.65,8.78,7.23a2.91,2.91,0,0,1,1.05,4A3.12,3.12,0,0,1,189.86,81.07ZM242,195.69h0a111.42,111.42,0,0,1-6.2,18.59,3.19,3.19,0,0,1-3.09,2.06h-1.55a3.2,3.2,0,0,1-2.06-3.09,2,2,0,0,1,.51-1.56,100.12,100.12,0,0,0,5.68-17.55h0a3.39,3.39,0,0,1,4-2.61l.11,0c1.55,0,2.58,2.06,2.58,4.13Zm.51-39.76h0A112.48,112.48,0,0,1,244,174.52v1a1.91,1.91,0,0,1-.52,1.55,3.26,3.26,0,0,1-3.09,2.58,3.53,3.53,0,0,1-3.61-3.44V175a95.41,95.41,0,0,0-1.55-17h0a3.83,3.83,0,0,1,.52-2.58,2.82,2.82,0,0,1,2.57-1.55,2.71,2.71,0,0,1,3.73.85,2.63,2.63,0,0,1,.4,1.21Zm-19.61-37.17a3.36,3.36,0,0,1,4.64,1h0a111.85,111.85,0,0,1,8.77,17.55c0,.52.52,1,0,1.55a3.47,3.47,0,0,1-2.06,3.1h-1.55a3.48,3.48,0,0,1-3.1-2.06c-2.57-5.68-5.16-10.84-8.25-16.52,0-.52-.52-1-.52-1.55A10.82,10.82,0,0,1,222.88,118.76Zm-6.7-9.81h0a.5.5,0,0,0-.52.49v0a4.09,4.09,0,0,1-4.64-1h0L198.64,94.49a3.45,3.45,0,0,1-.3-4.87l.3-.3c.51-.51,1-.51,1-1a3.88,3.88,0,0,1,4.13.52,173.13,173.13,0,0,1,12.89,14.45h0A4.06,4.06,0,0,1,216.18,109Zm-12.9,153.86h0a62,62,0,0,1-8.26,8.26,3.73,3.73,0,0,1-5.16,0,3.25,3.25,0,0,1-.58-4.56.27.27,0,0,1,.07-.08v-.52h0a.5.5,0,0,1,.49-.52h0l7.74-7.74h0a3.45,3.45,0,0,1,4.87-.3,2.76,2.76,0,0,1,.29.3h0c.52,1,1,1.55,1,2.58A2.27,2.27,0,0,1,203.28,262.81Zm7.22-14.46a3.44,3.44,0,0,1-.8-4.81,3.17,3.17,0,0,1,.29-.35h0l10.83-15.49a.52.52,0,0,1,.5-.52h0l.52-.51a.51.51,0,0,0,.51-.5v0H226l.52.52a.5.5,0,0,0,.49.51h0v2.58a.52.52,0,0,1-.5.52h0c-1.55,2.58-3.61,5.68-5.16,8.26a74,74,0,0,1-5.68,7.75,2.82,2.82,0,0,1-2.57,1.55C212.05,249.39,211.53,248.87,210.5,248.35Z"/><path id="Path_26407" data-name="Path 26407" class="cls-2" d="M355.48,268a130.15,130.15,0,0,0,22.71-39.24,72.78,72.78,0,0,0,2.57-42.86,118.77,118.77,0,0,0-26.83-47,315,315,0,0,0-82.55-65,523.86,523.86,0,0,0-98-40.79A584.19,584.19,0,0,0,71.2,9.81l-1,1.55h0l.52-.52a408.6,408.6,0,0,1,138.78,56.8,215.94,215.94,0,0,1,39.73,32c4.13,4.13,7.74,8.26,11.87,12.39,17,20.66,24.76,42.34,22.7,63.51a129.22,129.22,0,0,1-10.32,39.76c-13.93,32-40.24,60.41-77.91,84.16H322.47c.51-.51,1-1,1.55-1A195.4,195.4,0,0,0,355.48,268ZM201.74,50.08h0c-.52,0-.52.52,0,0a3.47,3.47,0,0,1-3.62,2.07,1.91,1.91,0,0,1-1.55-.52c-3.09-1.55-6.7-3.1-10.31-4.65a3.54,3.54,0,0,1-1.55-4.65h0a3.55,3.55,0,0,1,4.64-1.55c3.61,1.55,6.71,3.62,10.32,5.17a3.09,3.09,0,0,1,2.19,3.77ZM244,75.38A3.09,3.09,0,0,1,241,76.93h0a3.1,3.1,0,0,1-2.07-.51,200,200,0,0,0-20.63-12.91.5.5,0,0,1-.52-.49v0a4,4,0,0,1-1-5.16,3.09,3.09,0,0,1,3.09-1.55h1.55a.5.5,0,0,1,.52.49v0c7.22,4.13,14.45,8.77,21.15,13.42,2.06,1.55,2.58,3.61,1,5.16Zm75.33,87.26A3.7,3.7,0,0,1,324,165.1l0,.13A144,144,0,0,1,329.69,190a3.93,3.93,0,0,1-3.1,4.13h-.52a3.45,3.45,0,0,1-3.61-3.1,116.09,116.09,0,0,0-5.16-23.23,3.5,3.5,0,0,1,1.21-4.8A3.85,3.85,0,0,1,319.37,162.64Zm-36.63-55.76h0a4.77,4.77,0,0,1-2.58,1.55,4,4,0,0,1-2.58-1,186.18,186.18,0,0,0-18.58-16h0a3.46,3.46,0,0,1-.8-4.82,3.17,3.17,0,0,1,.29-.35h0a3.25,3.25,0,0,1,4.56-.58l.08.07h0c6.71,5.16,12.9,10.84,19.09,16.52a2.7,2.7,0,0,1,.52,4.65Zm30.44,157.48a66.09,66.09,0,0,1-5.68,10.33,3.68,3.68,0,0,1-3.09,1.55h0a3.9,3.9,0,0,1-2.06-.52,3.54,3.54,0,0,1-1.55-4.65v-.52a89.81,89.81,0,0,0,5.16-9.81l1-1a3.9,3.9,0,0,1,4.13-.52h0a3.46,3.46,0,0,1,2.47,4.21,3.57,3.57,0,0,1-.41,1Zm0-118.76c-.52.52-.52,1-1,1a1.9,1.9,0,0,1-1.54.51,2.81,2.81,0,0,1-3.1-2.06A137.69,137.69,0,0,0,294.09,125h0a1.56,1.56,0,0,1-.52-1,4,4,0,0,1,1-4.13h0a4,4,0,0,1,5.16.52h0a214.73,214.73,0,0,1,14.45,21.17A5.56,5.56,0,0,1,313.18,145.6Zm6.19,97.59h-1a3.14,3.14,0,0,1-2.41-3.73,3.43,3.43,0,0,1,.35-.92,124.76,124.76,0,0,0,5.16-23.23c0-.52.52-1,.52-1.56a3.51,3.51,0,0,1,6.71,1.56h0A143.28,143.28,0,0,1,323,240.09c0,.52-.51.52-.51,1A2.84,2.84,0,0,1,319.37,243.19Z"/><path id="Path_26408" data-name="Path 26408" class="cls-3" d="M272.93,215.31a136.86,136.86,0,0,0,10.32-39.76c2.06-21.17-5.67-42.85-22.7-63.51-3.61-4.13-7.74-8.26-11.87-12.39a240,240,0,0,0-39.73-32A408.51,408.51,0,0,0,70.17,10.84l-.52.52-4.13,6.71h0A390.94,390.94,0,0,1,203.8,74.35a231.56,231.56,0,0,1,50,42.34c13.93,16.52,20.64,33.56,21.16,50.08a34.33,34.33,0,0,1-.52,7.23,116.76,116.76,0,0,1-9.8,37.18A162,162,0,0,1,219.28,270,252.47,252.47,0,0,1,178,298.44h16.51C232.69,275.72,259,247.32,272.93,215.31Z"/><path id="Path_26409" data-name="Path 26409" d="M157.88,153.87v7.74a4,4,0,0,0,1,2.59l.52.51h1c.51,0,.51-.51,1-.51l1-1,.52-.52,1-1v-8.77h0l-6.19,1Z"/><path id="Path_26410" data-name="Path 26410" d="M120.21,216.34v-.51l-4.64,15.49,9.8-3.62Z"/><path id="Path_26411" data-name="Path 26411" d="M388,163.68c-2.57-3.62-5.16-7.23-7.22-10.33l73.78-26.85V106.37L364.77,135.8h0l-3.1-3.1c-2.06-2.06-3.61-4.13-5.67-6.19l98.55-26.86V75.9L329.68,101.72h0a332.39,332.39,0,0,0-53.14-36.15A586.94,586.94,0,0,0,176.45,23.75,593.37,593.37,0,0,0,76.87.52L74.29,5.16h0L71.2,10.33h0A584.19,584.19,0,0,1,173.36,33.57a523.86,523.86,0,0,1,98,40.79,304.53,304.53,0,0,1,82.55,65.06,118.67,118.67,0,0,1,26.83,47,57,57,0,0,1,2.07,16,79.54,79.54,0,0,1-4.65,26.85,129.91,129.91,0,0,1-22.7,39.24,179,179,0,0,1-32,30.47c-.51.51-1,1-1.55,1h17a191,191,0,0,0,24.76-25.3A143.44,143.44,0,0,0,388,232.36a80.67,80.67,0,0,0,4.65-38.22,82.06,82.06,0,0,1,6.7,31.5c1,24.78-9.8,48.53-30.95,70.73a4.69,4.69,0,0,0-1.55,3.62H378.7c21.15-23.24,32-48,30.95-74.87A115,115,0,0,0,388,163.68Z"/><path id="Path_26412" data-name="Path 26412" class="cls-4" d="M189.87,81.06a3.92,3.92,0,0,0,0-5.16h0c-3.1-2.58-5.68-4.65-8.78-7.23-.51,0-.51-.52-1-.52h-.51a3.19,3.19,0,0,0-3.62,1h0a4,4,0,0,0,.52,5.16h0c3.1,2.06,5.67,4.65,8.77,6.71.52.52.52.52,1,.52h1C187.8,82.61,188.83,82.1,189.87,81.06Z"/><path id="Path_26413" data-name="Path 26413" class="cls-4" d="M216.71,103.79h0a171.8,171.8,0,0,0-12.9-14.46,3.12,3.12,0,0,0-4.13-.52,1.85,1.85,0,0,0-1,.52,3.46,3.46,0,0,0-.3,4.87l.3.29c4.13,4.65,8.77,9.3,12.38,13.94a4,4,0,0,0,4.65,1,.52.52,0,0,0,.52-.5v0h0a3.48,3.48,0,0,0,.75-4.87A3.36,3.36,0,0,0,216.71,103.79Z"/><path id="Path_26414" data-name="Path 26414" class="cls-4" d="M236.82,137.86a111.42,111.42,0,0,0-8.77-17.55,3.45,3.45,0,0,0-4.81-.81,4.57,4.57,0,0,0-.36.29,3.65,3.65,0,0,0-1.54,3.1,1.85,1.85,0,0,0,.51,1.55A98.77,98.77,0,0,1,230.11,141,3.2,3.2,0,0,0,233.2,143h1.55a3.18,3.18,0,0,0,2.06-3.09v-2.07Z"/><path id="Path_26415" data-name="Path 26415" class="cls-4" d="M244,174.52a112.48,112.48,0,0,0-1.55-18.59,3.19,3.19,0,0,0-3.61-2.7,4.37,4.37,0,0,0-.52.12c-1,0-1.55.52-2.06,1.55a3.9,3.9,0,0,0-.52,2.58h0a94.58,94.58,0,0,1,1.55,17v1a3.53,3.53,0,0,0,3.44,3.61H241a3.27,3.27,0,0,0,3.09-2.58c0-.52,0-.52.52-1v-1Z"/><path id="Path_26416" data-name="Path 26416" class="cls-4" d="M239.4,191.56a3.18,3.18,0,0,0-4,2.07,2.23,2.23,0,0,0-.12.51h0a100.12,100.12,0,0,1-5.68,17.55c0,.52-.51,1-.51,1.56a3.47,3.47,0,0,0,2.06,3.09h1.55a3.46,3.46,0,0,0,3.09-2.06,130.76,130.76,0,0,0,6.2-18.59h0C242,193.62,241,191.56,239.4,191.56Z"/><path id="Path_26417" data-name="Path 26417" class="cls-4" d="M221.34,240.09a44.13,44.13,0,0,0,5.16-8.26c0-.52.52-.52.52-1v-2.07a.5.5,0,0,0-.5-.51h0l-.52-.52h-.52a.51.51,0,0,1-.51-.51h-2.06a.5.5,0,0,0-.52.49v0l-.51.52h0l-.52.52a140.54,140.54,0,0,1-10.84,15.49h0a3.26,3.26,0,0,0,.43,4.58l.08.06a3.13,3.13,0,0,0,2.06.52,2.83,2.83,0,0,0,2.58-1.55A74.51,74.51,0,0,0,221.34,240.09Z"/><path id="Path_26418" data-name="Path 26418" class="cls-4" d="M203.28,257.66h0a3.46,3.46,0,0,0-4.87-.3l-.29.3h0l-7.74,7.75-.52.51v1a3.18,3.18,0,0,0,.52,3.61h0a3.73,3.73,0,0,0,5.16,0c2.58-2.58,5.67-5.16,8.25-8.26a3.9,3.9,0,0,0,1-2.06A11.33,11.33,0,0,0,203.28,257.66Z"/><path id="Path_26419" data-name="Path 26419" class="cls-4" d="M199.67,45.44c-3.62-1.55-6.71-3.62-10.32-5.17a3.4,3.4,0,0,0-4.59,1.44l-.06.11h0a3.55,3.55,0,0,0,1.55,4.65h0c3.1,1.55,6.71,3.1,10.32,4.65.52,0,1,.51,1.55.51a2.83,2.83,0,0,0,3.1-2.06h0C202.25,48.53,201.73,46.47,199.67,45.44Z"/><path id="Path_26420" data-name="Path 26420" class="cls-4" d="M243.52,70.74c-6.7-4.65-13.93-8.78-21.15-13.43a1.57,1.57,0,0,0-1-.51h-.52a4.38,4.38,0,0,0-3.09,1.55,3.53,3.53,0,0,0,.7,4.94l.33.22.52.52a201.66,201.66,0,0,1,20.63,12.9,3.1,3.1,0,0,0,2.07.52h0a4.48,4.48,0,0,0,3.09-1.55C245.07,73.83,245.07,71.77,243.52,70.74Z"/><path id="Path_26421" data-name="Path 26421" class="cls-4" d="M282.74,102.23h0c-6.19-6.19-12.39-11.35-19.1-17a3.23,3.23,0,0,0-4.57.43l-.07.08h0a3.91,3.91,0,0,0,.52,5.17h0c6.7,5.16,12.89,10.84,18.57,16a3.75,3.75,0,0,0,5.16,0h0A5.17,5.17,0,0,0,282.74,102.23Z"/><path id="Path_26422" data-name="Path 26422" class="cls-4" d="M319.37,163.16a3.13,3.13,0,0,0-2.06,4.65,125.49,125.49,0,0,1,5.16,23.24c0,2.06,1.55,3.09,3.61,3.09h0a3.31,3.31,0,0,0,3.2-3.41,3.59,3.59,0,0,0-.11-.72,96.31,96.31,0,0,0-5.67-24.78C323.5,163.16,321.43,162.13,319.37,163.16Z"/><path id="Path_26423" data-name="Path 26423" class="cls-4" d="M313.69,142a187.54,187.54,0,0,0-13.93-21.17,3.43,3.43,0,0,0-4.8-.8,2,2,0,0,0-.36.29h0a5.55,5.55,0,0,0-1.55,3.61,1.76,1.76,0,0,0,.52,1h0A105.21,105.21,0,0,1,307,145.09a4.22,4.22,0,0,0,3.1,2.06,1.9,1.9,0,0,0,1.54-.51c.52-.52,1-.52,1-1A2.72,2.72,0,0,0,313.69,142Z"/><path id="Path_26424" data-name="Path 26424" class="cls-4" d="M323,240.61a124.68,124.68,0,0,0,5.67-24.78v-.52h0c0-2.06-1-3.62-3.1-3.62a3.46,3.46,0,0,0-3.61,2.07c0,.52-.51.52-.51,1a132.47,132.47,0,0,1-5.68,23.75,3.89,3.89,0,0,0,2.06,4.65h1a4.46,4.46,0,0,0,3.09-1.55C323,241.13,323,240.61,323,240.61Z"/><path id="Path_26425" data-name="Path 26425" class="cls-4" d="M311.62,259.2h0a3.9,3.9,0,0,0-4.13.51l-1,1c-1.55,3.1-3.61,6.19-5.16,9.81a4,4,0,0,0,1,5.16h.52a1.89,1.89,0,0,0,1.55.52h0a3.68,3.68,0,0,0,3.09-1.55,65.64,65.64,0,0,0,5.68-10.33,3.58,3.58,0,0,0-1.12-4.93A2.55,2.55,0,0,0,311.62,259.2Z"/><g id="Group_21627" data-name="Group 21627"><path id="Path_26426" data-name="Path 26426" d="M215.14,155.93a3.07,3.07,0,0,0-.51-2.06c-.52-1-.52-2.58-1-3.62s-.52-2.06-1-3.09-.51-2.07-1-3.1v-.52c0-.51-.52-1-.52-1.55a35.22,35.22,0,0,0-2.58-6.71c0-.52-.51-1-.51-1.55a114.39,114.39,0,0,0-11.87-22.2c-.52-.52-.52-1-1-1.55l-1-1c-1-1-1.54-2.58-2.57-3.61-17-24.27-41.28-42.86-67.07-56.8-4.65-2.58-9.29-4.64-13.42-6.71-5.16-2.58-10.83-5.16-16-7.74C84.61,29.43,74.29,25.3,64,21.17h0c0,.52-4.64,8.26-4.64,8.26,9.28,3.62,17.54,7.75,26.31,11.36L80,49.05l-1-.51C67.58,42.86,58.81,38.73,55.2,36.66L50,45.44A561.42,561.42,0,0,1,106.8,75.38l17,10.85c8.26,5.68,16.51,11.87,24.25,18.07a129.22,129.22,0,0,1,11.87,11.88,48.92,48.92,0,0,1,8.77,13.94c.52,1,.52,1.55,1,2.58,0,.51,0,.51.52,1L.52,168.84V233.9l206.89-63v6.2a8.69,8.69,0,0,1-.52,3.61L0,242.16v50.6L178,227.7A225.21,225.21,0,0,1,131.57,253,784.69,784.69,0,0,1,5.68,295.34c-1.55.51-3.61,1-5.16,1.55v2.58H32a797.81,797.81,0,0,0,103.7-36.66C157.36,253,177,243.7,192.44,228.73A72.68,72.68,0,0,0,215.14,190a3.16,3.16,0,0,1,.52-2.07c0-.52.52-1.55.52-2.06,0-1,.51-2.07.51-3.1,0-1.55.52-2.58.52-4.13V177.1A101.06,101.06,0,0,0,215.14,155.93ZM125.37,75.38h0c-4.13-2.58-8.77-5.67-13.41-8.26-7.74-4.65-15-8.78-22.19-12.39h-1L94.93,46a258.18,258.18,0,0,1,37.15,20.13Zm39.21,31h0a203.1,203.1,0,0,0-30.44-25.3l7.22-10.32h0a218.31,218.31,0,0,1,31.48,26.33Zm-115,71.78-4.13,1v20.65l-4.13,1V180.2h0l-2.06.52h0l-2.06.51-3.1.52V202.4l-3.61,1h0V192.59l-5.16,1v4.13l-.52.51h-.51l-1.55.52h-1c-.52-.52-1-.52-1.55-1h0l-2.06-1.55c-.52-.52-.52-.52-.52-1v-.51l.52-.52.51-.52h.52l2.58-.51v-6.72l-.52-.51H19.6l-.51,1V190l-1.55.52-2.06.51v-1.55a5.51,5.51,0,0,1,1-3.1,4.48,4.48,0,0,1,3.09-1.55l1.55-.51a4.7,4.7,0,0,1,2.58.51h.52a1.89,1.89,0,0,1,1.09,2.44.59.59,0,0,1-.06.14v5.68l4.65-1h.51v-7.74h-.51l-3.62,1h0v-1.55l11.87-2.58h.52l10.83-2.58h.52Zm38.7-8.78h0V190l-4.13,1V170.39h0a5.06,5.06,0,0,0-2.06.52l-2.58.51a5.4,5.4,0,0,0-2.06.52v5.68a4.72,4.72,0,0,1-1.55,3.61,10.92,10.92,0,0,1-3.1,2.07l-1.55.51,3.1,3.62,1,1,2.06,2.07,1,.51-.52.52-1,1.55-1.55.52c-1-.52-1.55-1-2.58-1.55a33.75,33.75,0,0,1-4.13-4.65l-1.55-1.55-1-1.55-1-1.55-.51-1L66,180.19l1.55-.51,1.55,2.58a1.91,1.91,0,0,0,1.55.51l.51-.51c.52-.52,1-1,1-1.55h0V174l-11.87,2.59V175c3.09-.51,5.67-1.55,8.77-2.06l6.19-1.55h.52a11.18,11.18,0,0,1,3.09-.52,5,5,0,0,0,2.06-.51,66,66,0,0,0,10.84-2.58v1ZM133.12,159h0v20.65l-4.13,1V160.06h0a6.91,6.91,0,0,0-2.58.52l-2.06.52a2.27,2.27,0,0,0-1.55.51v5.68a4.72,4.72,0,0,1-1.55,3.62,10.75,10.75,0,0,1-3.1,2.06l-1.55.52h0l3.1,3.61,1,1,2.06,2.06,1,.52-1.55,2.06-1.55.52h0c-1-.52-1.55-1-2.58-1.55A33.75,33.75,0,0,1,114,177.1l-1.55-1.55-1-1.55-1-1.55-1-1.55,1.55-1.55,1.55-.52h0l1.55,2.58c0,.52.52.52,1,.52h.52l.52-.52c.51-.52,1-1,1-1.55v-6.7h0l-11.87,2.58h0v-1.55l18.06-4.13,1.55-.52h0L135.69,157V159Zm38.17-10.33c4.13-1,7.74-1.55,11.87-2.58v1.55a32.29,32.29,0,0,1-3.61,1,.52.52,0,0,0-.52.5v20.16c-1.55.51-2.58.51-4.13,1V150.25c-2.06.52-4.64,1-6.7,1.55v20.65c-1,.52-2.58.52-3.61,1v-7.75c-2.58,2.58-4.65,5.17-7.23,7.75-.51.51-1.55,1.55-2.06,1.55a2.27,2.27,0,0,1-2.58-.52c2.06-2.58,4.65-4.65,6.71-7.23a5.54,5.54,0,0,1-4.13-1,4.91,4.91,0,0,1-1-3.62v-7.22c-1,0-2.06.51-3.1.51v-1.55a115.27,115.27,0,0,1,20.12-5.68m8.26-17h0v-1a38.12,38.12,0,0,0-7.22-14.45h0c-.52-.52-.52-1-1-1.56v.52h0l.52-.52h0l8.26-9.29a128.59,128.59,0,0,1,15,22.21c0,.51.51,1,1,1.55ZM63,262.82h0l-10.32-9.3-10.32-9.29h0v26.33l-4.64,1.55h0V238.55l5.16-2.07h0L63,255.07h0V230.28l5.16-1.55h0v32Zm39.72-15L98,249.39V234.93l-17.54,6.2v14.46l-4.65,1.55v-31.5l4.65-1.56v13.43L98,231.83V219.44l4.64-1.55Zm32-11.88L130,237.52l-3.62-7.23-12.89,4.64-3.61,10.33-4.65,1.55h0l11.87-33.56,4.64-1.55L134.66,236Zm7.22-30.46v27.88l-4.12,1.55v-28.4h0Z"/></g></g></svg>