<svg xmlns="http://www.w3.org/2000/svg" height="40px" viewBox="0 -960 960 960" width="40px" fill="#042779"><path d="M798.33-103.33 537.67-364Q507-339 464.5-325.17 422-311.33 377-311.33q-115.67 0-195.17-79.5-79.5-79.5-79.5-193.84 0-114.33 79.5-193.83 79.5-79.5 194.5-79.5Q490-858 569.5-778.5 649-699 649-584.67q0 44.34-13.17 85Q622.67-459 596-424.33l262.33 261-60 60Zm-422-292q79 0 133.84-55.17Q565-505.67 565-584.67q0-79-54.83-134.16Q455.33-774 376.33-774q-80.33 0-135.16 55.17-54.84 55.16-54.84 134.16t54.84 134.17q54.83 55.17 135.16 55.17Z"/></svg>